<svg version="1.1" xmlns="http://www.w3.org/2000/svg" xmlns:xlink="http://www.w3.org/1999/xlink" viewBox="0,0,256,256"><g fill="#000000" fill-rule="nonzero" stroke="none" stroke-width="1" stroke-linecap="butt" stroke-linejoin="miter" stroke-miterlimit="10" stroke-dasharray="" stroke-dashoffset="0" font-family="none" font-weight="none" font-size="none" text-anchor="none" style="mix-blend-mode: normal"><g transform="scale(5.33333,5.33333)"><path d="M13.5,5c-1.03443,-0.01334 -2.02179,0.43159 -2.69703,1.21535c-0.67524,0.78376 -0.9692,1.82607 -0.80297,2.84715v29.86523c-0.16945,1.02259 0.12303,2.0677 0.79865,2.85379c0.67562,0.78609 1.6649,1.23232 2.70135,1.21848h15c6.30981,0 11.5,-5.19019 11.5,-11.5c0,-3.9237 -2.13086,-7.24325 -5.16602,-9.32227c1.26033,-1.78876 2.16602,-3.84401 2.16602,-6.17773c0,-6.03368 -4.96632,-11 -11,-11zM17,12h9c2.25032,0 4,1.74968 4,4c0,2.25032 -1.74968,4 -4,4h-8.5c-0.16725,-0.00089 -0.33434,0.0102 -0.5,0.0332zM17,26.9668c0.08492,0.01225 0.17027,0.02137 0.25586,0.02734c0.08129,0.00479 0.16272,0.00675 0.24414,0.00586h8.5h2.5c2.52619,0 4.5,1.97381 4.5,4.5c0,2.52619 -1.97381,4.5 -4.5,4.5h-11.5z"></path></g></g></svg>