<svg version="1.1" xmlns="http://www.w3.org/2000/svg" xmlns:xlink="http://www.w3.org/1999/xlink" width="48px" height="48px" viewBox="0,0,256,256"><g fill="#000000" fill-rule="nonzero" stroke="none" stroke-width="1" stroke-linecap="butt" stroke-linejoin="miter" stroke-miterlimit="10" stroke-dasharray="" stroke-dashoffset="0" font-family="none" font-weight="none" font-size="none" text-anchor="none" style="mix-blend-mode: normal"><g transform="scale(5.33333,5.33333)"><path d="M17.98438,2.98438c-0.61065,0.00015 -1.16026,0.37042 -1.38978,0.93629c-0.22952,0.56587 -0.09314,1.21439 0.34486,1.63988l1.93945,1.93945l-13.26758,13.26758c-2.13534,2.13534 -2.13534,5.64201 0,7.77734l13.84375,13.84375c2.13534,2.13534 5.64201,2.13534 7.77734,0l14.32813,-14.32812c0.58555,-0.58579 0.58555,-1.5353 0,-2.12109l-22.5,-22.5c-0.28248,-0.2909 -0.67069,-0.45506 -1.07617,-0.45508zM21,9.62109l17.00586,17.00586c0.01721,0.20155 0.07501,0.39754 0.16992,0.57617l-1.97461,1.97461c-0.21573,-0.11556 -0.45645,-0.17657 -0.70117,-0.17773c-0.5262,0.00027 -1.01378,0.27625 -1.28486,0.72725c-0.27108,0.451 -0.28602,1.01107 -0.03936,1.47587l-1.97461,1.97461c-0.21573,-0.11556 -0.45645,-0.17657 -0.70117,-0.17773c-0.5262,0.00027 -1.01378,0.27625 -1.28486,0.72725c-0.27108,0.451 -0.28602,1.01107 -0.03936,1.47587l-1.97461,1.97461c-0.21573,-0.11556 -0.45645,-0.17657 -0.70117,-0.17773c-0.5262,0.00027 -1.01378,0.27625 -1.28486,0.72725c-0.27108,0.451 -0.28602,1.01107 -0.03936,1.47587l-1.06445,1.06445c-0.98866,0.98866 -2.54649,0.98866 -3.53516,0l-0.87305,-0.87305c0.33799,-0.45495 0.3907,-1.06155 0.13624,-1.56797c-0.25445,-0.50643 -0.77261,-0.8262 -1.33937,-0.82656c-0.32233,0.00028 -0.636,0.10438 -0.89453,0.29688l-1.90234,-1.90234c0.33799,-0.45495 0.3907,-1.06155 0.13624,-1.56797c-0.25445,-0.50643 -0.77261,-0.8262 -1.33937,-0.82656c-0.32233,0.00028 -0.636,0.10438 -0.89453,0.29688l-1.90234,-1.90234c0.33799,-0.45495 0.3907,-1.06155 0.13624,-1.56797c-0.25445,-0.50643 -0.77261,-0.8262 -1.33937,-0.82656c-0.32233,0.00028 -0.636,0.10438 -0.89453,0.29688l-1.90234,-1.90234c0.33799,-0.45495 0.3907,-1.06155 0.13624,-1.56797c-0.25445,-0.50643 -0.77261,-0.8262 -1.33937,-0.82656c-0.1593,0.00034 -0.31754,0.02605 -0.46875,0.07617c-0.13351,-0.76892 0.09751,-1.58384 0.70117,-2.1875zM15.5,25c-0.82843,0 -1.5,0.67157 -1.5,1.5c0,0.82843 0.67157,1.5 1.5,1.5c0.82843,0 1.5,-0.67157 1.5,-1.5c0,-0.82843 -0.67157,-1.5 -1.5,-1.5zM23.5,25c-0.82843,0 -1.5,0.67157 -1.5,1.5c0,0.82843 0.67157,1.5 1.5,1.5c0.82843,0 1.5,-0.67157 1.5,-1.5c0,-0.82843 -0.67157,-1.5 -1.5,-1.5zM31.5,25c-0.82843,0 -1.5,0.67157 -1.5,1.5c0,0.82843 0.67157,1.5 1.5,1.5c0.82843,0 1.5,-0.67157 1.5,-1.5c0,-0.82843 -0.67157,-1.5 -1.5,-1.5zM19.5,29c-0.82843,0 -1.5,0.67157 -1.5,1.5c0,0.82843 0.67157,1.5 1.5,1.5c0.82843,0 1.5,-0.67157 1.5,-1.5c0,-0.82843 -0.67157,-1.5 -1.5,-1.5zM27.5,29c-0.82843,0 -1.5,0.67157 -1.5,1.5c0,0.82843 0.67157,1.5 1.5,1.5c0.82843,0 1.5,-0.67157 1.5,-1.5c0,-0.82843 -0.67157,-1.5 -1.5,-1.5zM23.5,33c-0.82843,0 -1.5,0.67157 -1.5,1.5c0,0.82843 0.67157,1.5 1.5,1.5c0.82843,0 1.5,-0.67157 1.5,-1.5c0,-0.82843 -0.67157,-1.5 -1.5,-1.5zM41.5,35.0293c-0.1685,0 -0.33769,0.08581 -0.42969,0.25781c-0.829,1.548 -2.57031,4.95089 -2.57031,6.21289c0,1.657 1.343,3 3,3c1.657,0 3,-1.343 3,-3c0,-1.262 -1.74131,-4.66489 -2.57031,-6.21289c-0.092,-0.172 -0.26119,-0.25781 -0.42969,-0.25781z"></path></g></g></svg>