<svg width="48" height="48" viewBox="0 0 48 48" fill="none" xmlns="http://www.w3.org/2000/svg">
<path d="M19.9398 2.00051C17.2605 2.00051 15.0536 4.20747 15.0536 6.88676V12.8588V27.5176C15.0536 30.1968 17.2605 32.4038 19.9398 32.4038L41.1138 32.4033C43.793 32.4033 46 30.1963 46 27.517V12.3154V6.88624C46 4.20695 43.793 2 41.1138 2L19.9398 2.00051ZM6.88653 3.08635C6.46269 3.09255 6.05796 3.26372 5.75829 3.56351L2.50079 6.82101C2.07531 7.22953 1.90392 7.83615 2.05273 8.40692C2.20153 8.9777 2.64726 9.42343 3.21804 9.57223C3.78882 9.72104 4.39543 9.54964 4.80395 9.12417L5.28112 8.647V25.7573L4.80395 25.2802C4.39543 24.8547 3.78881 24.6833 3.21804 24.8321C2.64727 24.9809 2.20153 25.4266 2.05274 25.9974C1.90393 26.5682 2.07533 27.1748 2.5008 27.5833L5.7583 30.8408C6.39437 31.4766 7.42538 31.4766 8.06145 30.8408L11.3189 27.5833C11.7444 27.1748 11.9158 26.5682 11.767 25.9974C11.6182 25.4266 11.1725 24.9809 10.6017 24.8321C10.0309 24.6833 9.42432 24.8547 9.01579 25.2802L8.53862 25.7573V8.647L9.01579 9.12417C9.42432 9.54965 10.0309 9.72104 10.6017 9.57223C11.1725 9.42343 11.6182 8.9777 11.767 8.40693C11.9158 7.83616 11.7444 7.22954 11.3189 6.82102L8.06145 3.56352C7.75034 3.25229 7.32654 3.08017 6.88653 3.08635ZM20.4828 5.25801H24.8261C26.0205 5.25801 30.2546 5.25794 30.2546 5.25794L30.7739 21.5435H18.3111V7.42967C18.3111 6.23526 19.2883 5.25801 20.4828 5.25801ZM32.4269 5.25801C32.4269 5.25801 39.3764 5.25749 40.5708 5.25749C41.7653 5.25749 42.7425 6.23474 42.7425 7.42916V21.5435H30.7739L30.2546 5.25794L32.4269 5.25801ZM18.3111 24.8321H42.7425V27.517C42.7425 28.4362 42.0329 29.1458 41.1138 29.1458L19.9398 29.1463C19.0207 29.1463 18.3111 28.4367 18.3111 27.5176V24.8321ZM21.0108 35.638C20.5807 35.6481 20.172 35.8281 19.8741 36.1385L16.6166 39.396C15.9808 40.032 15.9808 41.063 16.6166 41.6991L19.8741 44.9566C20.2826 45.3821 20.8892 45.5535 21.46 45.4047C22.0308 45.2559 22.4765 44.8101 22.6253 44.2394C22.7741 43.6686 22.6027 43.062 22.1772 42.6535L21.7001 42.1763L39.263 42.1699L38.7859 42.6471C38.3604 43.0556 38.189 43.6622 38.3378 44.233C38.4866 44.8038 38.9323 45.2495 39.5031 45.3983C40.0739 45.5471 40.6805 45.3757 41.089 44.9502L44.3465 41.6928C44.9823 41.0567 44.9823 40.0257 44.3465 39.3896L41.089 36.1321C40.7823 35.8162 40.3608 35.638 39.9205 35.638C39.2574 35.6381 38.6606 36.0402 38.4114 36.6546C38.1622 37.2691 38.3103 37.9732 38.7859 38.4353L39.263 38.9124L21.7001 38.9188L22.1772 38.4416C22.662 37.9763 22.8113 37.2611 22.5532 36.6407C22.2951 36.0203 21.6826 35.6221 21.0108 35.638Z" fill="black"/>
</svg>
