<svg version="1.1" xmlns="http://www.w3.org/2000/svg" xmlns:xlink="http://www.w3.org/1999/xlink" width="48px" height="48px" viewBox="0,0,256,256"><g fill="#000000" fill-rule="nonzero" stroke="none" stroke-width="1" stroke-linecap="butt" stroke-linejoin="miter" stroke-miterlimit="10" stroke-dasharray="" stroke-dashoffset="0" font-family="none" font-weight="none" font-size="none" text-anchor="none" style="mix-blend-mode: normal"><g transform="scale(5.33333,5.33333)"><path d="M7.97852,5.98047c-0.57881,0.00061 -1.12897,0.25192 -1.50839,0.68902c-0.37942,0.4371 -0.55089,1.01713 -0.47013,1.59027v7.74023c-0.0102,0.72127 0.36875,1.39216 0.99175,1.75578c0.623,0.36361 1.39351,0.36361 2.01651,0c0.623,-0.36361 1.00195,-1.0345 0.99175,-1.75578v-3.17187l7.58594,7.58594c0.50163,0.52248 1.24653,0.73295 1.94742,0.55024c0.70088,-0.18271 1.24823,-0.73006 1.43094,-1.43094c0.18271,-0.70088 -0.02776,-1.44578 -0.55024,-1.94742l-7.58594,-7.58594h3.17188c0.72127,0.0102 1.39216,-0.36875 1.75578,-0.99175c0.36361,-0.623 0.36361,-1.39351 0,-2.01651c-0.36361,-0.623 -1.0345,-1.00195 -1.75578,-0.99175h-7.75391c-0.08866,-0.01249 -0.17805,-0.01902 -0.26758,-0.01953zM39.96094,5.98047c-0.07387,0.00243 -0.14755,0.00895 -0.2207,0.01953h-7.74023c-0.72127,-0.0102 -1.39216,0.36875 -1.75578,0.99175c-0.36361,0.623 -0.36361,1.39351 0,2.01651c0.36361,0.623 1.0345,1.00195 1.75578,0.99175h3.17188l-7.58594,7.58594c-0.52248,0.50163 -0.73295,1.24653 -0.55024,1.94742c0.18271,0.70088 0.73006,1.24823 1.43094,1.43094c0.70088,0.18271 1.44578,-0.02776 1.94742,-0.55024l7.58594,-7.58594v3.17188c-0.0102,0.72127 0.36875,1.39216 0.99175,1.75578c0.623,0.36361 1.39351,0.36361 2.01651,0c0.623,-0.36361 1.00195,-1.0345 0.99175,-1.75578v-7.75391c0.0781,-0.58158 -0.10312,-1.16812 -0.49567,-1.60429c-0.39255,-0.43617 -0.95683,-0.67796 -1.5434,-0.66133zM18.96094,26.98047c-0.5196,0.01548 -1.01276,0.23264 -1.375,0.60547l-7.58594,7.58594v-3.17187c0.0102,-0.72127 -0.36875,-1.39216 -0.99175,-1.75578c-0.623,-0.36361 -1.39351,-0.36361 -2.01651,0c-0.623,0.36361 -1.00195,1.0345 -0.99175,1.75578v7.75391c-0.08292,0.61991 0.12889,1.24293 0.57248,1.68384c0.44359,0.44091 1.06788,0.64894 1.68728,0.56226h7.74023c0.72127,0.0102 1.39216,-0.36875 1.75578,-0.99175c0.36361,-0.623 0.36361,-1.39351 0,-2.01651c-0.36361,-0.623 -1.0345,-1.00195 -1.75578,-0.99175h-3.17187l7.58594,-7.58594c0.59152,-0.57498 0.76938,-1.45413 0.44787,-2.21382c-0.32151,-0.75969 -1.07643,-1.24408 -1.90099,-1.21977zM28.97852,26.98047c-0.81349,0.00101 -1.54533,0.49459 -1.85108,1.24844c-0.30574,0.75385 -0.12447,1.61777 0.4585,2.18515l7.58594,7.58594h-3.17187c-0.72127,-0.0102 -1.39216,0.36875 -1.75578,0.99175c-0.36361,0.623 -0.36361,1.39351 0,2.01651c0.36361,0.623 1.0345,1.00195 1.75578,0.99175h7.75391c0.61991,0.08292 1.24293,-0.12889 1.68384,-0.57248c0.44091,-0.44359 0.64894,-1.06788 0.56226,-1.68728v-7.74023c0.0102,-0.72127 -0.36875,-1.39216 -0.99175,-1.75578c-0.623,-0.36361 -1.39351,-0.36361 -2.01651,0c-0.623,0.36361 -1.00195,1.0345 -0.99175,1.75578v3.17188l-7.58594,-7.58594c-0.37701,-0.38755 -0.89487,-0.60596 -1.43555,-0.60547z"></path></g></g></svg>