<svg version="1.1" xmlns="http://www.w3.org/2000/svg" xmlns:xlink="http://www.w3.org/1999/xlink" viewBox="0,0,256,256"><g fill="#000000" fill-rule="nonzero" stroke="none" stroke-width="1" stroke-linecap="butt" stroke-linejoin="miter" stroke-miterlimit="10" stroke-dasharray="" stroke-dashoffset="0" font-family="none" font-weight="none" font-size="none" text-anchor="none" style="mix-blend-mode: normal"><g transform="scale(5.33333,5.33333)"><path d="M37.36914,4.50781c-0.60713,-0.02662 -1.2232,0.16379 -1.71484,0.57617l-24.62305,20.63086c-0.92879,0.77812 -0.9556,2.06148 -0.39453,3.07813l-1.95508,1.95508c-0.96338,0.96338 -0.96362,2.574 0.00195,3.53711l0.35156,0.35156l-4.5957,4.59766c-0.36691,0.36762 -0.51756,0.89886 -0.39824,1.40436c0.11931,0.5055 0.49161,0.91331 0.98418,1.07806l6.83789,2.2793c0.89685,0.29978 1.89067,0.06542 2.55859,-0.60352l0.00195,-0.00195l1.68164,-1.68359l0.35547,0.35547c0.96338,0.96338 2.57205,0.96367 3.53516,-0.00195l1.95508,-1.95312c1.01649,0.56016 2.30034,0.53386 3.07813,-0.39453l20.63086,-24.62305c0.82397,-0.98233 0.75482,-2.46928 -0.14844,-3.375c-0.00065,0 -0.0013,0 -0.00195,0l-6.48242,-6.48438c-0.45348,-0.45348 -1.05107,-0.69603 -1.6582,-0.72266zM37.23047,7.67773l5.83594,5.83594l-19.98828,23.85352l-9.70312,-9.70508zM12.57227,31.10156l7.07031,7.07031l-1.41406,1.41406l-7.07227,-7.07031zM11.15625,36.75781l2.82813,2.82813l-1.4668,1.4668l-4.24023,-1.41406z"></path></g></g></svg>
