<svg version="1.1" xmlns="http://www.w3.org/2000/svg" xmlns:xlink="http://www.w3.org/1999/xlink" viewBox="0,0,256,256"><g fill="#ffffff" fill-rule="nonzero" stroke="none" stroke-width="1" stroke-linecap="butt" stroke-linejoin="miter" stroke-miterlimit="10" stroke-dasharray="" stroke-dashoffset="0" font-family="none" font-weight="none" font-size="none" text-anchor="none" style="mix-blend-mode: normal"><g transform="scale(5.33333,5.33333)"><path d="M20.47266,5c-1.5984,0 -3.08181,0.85193 -3.88672,2.23242l-2.19727,3.76758h-3.88867c-3.57194,0 -6.5,2.92806 -6.5,6.5v19c0,3.57194 2.92806,6.5 6.5,6.5h27c3.57194,0 6.5,-2.92806 6.5,-6.5v-19c0,-3.57194 -2.92806,-6.5 -6.5,-6.5h-3.88867l-2.19727,-3.76758c-0.80491,-1.38049 -2.28832,-2.23242 -3.88672,-2.23242zM20.47266,8h7.05469c0.5356,0 1.02583,0.28263 1.29492,0.74414l2.63281,4.51172c0.26872,0.46055 0.76171,0.74386 1.29492,0.74414h4.75c1.95006,0 3.5,1.54994 3.5,3.5v19c0,1.95006 -1.54994,3.5 -3.5,3.5h-27c-1.95006,0 -3.5,-1.54994 -3.5,-3.5v-19c0,-1.95006 1.54994,-3.5 3.5,-3.5h4.75c0.53322,-0.00029 1.02621,-0.28359 1.29492,-0.74414l2.63281,-4.51172c0.26909,-0.46151 0.75932,-0.74414 1.29492,-0.74414zM24,17c-4.9528,0 -9,4.04721 -9,9c0,4.95279 4.0472,9 9,9c4.9528,0 9,-4.04721 9,-9c0,-4.95279 -4.0472,-9 -9,-9zM24,20c3.33148,0 6,2.66852 6,6c0,3.33148 -2.66852,6 -6,6c-3.33148,0 -6,-2.66852 -6,-6c0,-3.33148 2.66852,-6 6,-6z"></path></g></g></svg>