<svg version="1.1" xmlns="http://www.w3.org/2000/svg" xmlns:xlink="http://www.w3.org/1999/xlink" viewBox="0,0,256,256"><g fill="#000000" fill-rule="nonzero" stroke="none" stroke-width="1" stroke-linecap="butt" stroke-linejoin="miter" stroke-miterlimit="10" stroke-dasharray="" stroke-dashoffset="0" font-family="none" font-weight="none" font-size="none" text-anchor="none" style="mix-blend-mode: normal"><g transform="scale(5.33333,5.33333)"><path d="M20.5,6c-7.99,0 -14.5,6.51 -14.5,14.5c0,7.99 6.51,14.5 14.5,14.5c3.456,0 6.63391,-1.221 9.12891,-3.25l9.81055,9.81055c0.574,0.598 1.52309,0.61697 2.12109,0.04297c0.597,-0.574 0.61597,-1.52409 0.04297,-2.12109c-0.014,-0.015 -0.02897,-0.02897 -0.04297,-0.04297l-9.81055,-9.81055c2.029,-2.495 3.25,-5.67291 3.25,-9.12891c0,-7.99 -6.51,-14.5 -14.5,-14.5zM20.5,9c6.369,0 11.5,5.131 11.5,11.5c0,3.103 -1.22398,5.9057 -3.20898,7.9707c-0.122,0.09 -0.23031,0.19831 -0.32031,0.32031c-2.065,1.985 -4.8677,3.20898 -7.9707,3.20898c-6.369,0 -11.5,-5.131 -11.5,-11.5c0,-6.369 5.131,-11.5 11.5,-11.5zM16.5,16c-0.82843,0 -1.5,0.67157 -1.5,1.5c0,0.82843 0.67157,1.5 1.5,1.5c0.82843,0 1.5,-0.67157 1.5,-1.5c0,-0.82843 -0.67157,-1.5 -1.5,-1.5zM24.5,16c-0.82843,0 -1.5,0.67157 -1.5,1.5c0,0.82843 0.67157,1.5 1.5,1.5c0.82843,0 1.5,-0.67157 1.5,-1.5c0,-0.82843 -0.67157,-1.5 -1.5,-1.5zM16.5,23c-0.828,0 -1.5,0.672 -1.5,1.5c0,0.828 0.672,1.5 1.5,1.5h8c0.828,0 1.5,-0.672 1.5,-1.5c0,-0.828 -0.672,-1.5 -1.5,-1.5z"></path></g></g></svg>