<svg version="1.1" xmlns="http://www.w3.org/2000/svg" xmlns:xlink="http://www.w3.org/1999/xlink" viewBox="0,0,256,256"><g fill="#ffffff" fill-rule="nonzero" stroke="none" stroke-width="1" stroke-linecap="butt" stroke-linejoin="miter" stroke-miterlimit="10" stroke-dasharray="" stroke-dashoffset="0" font-family="none" font-weight="none" font-size="none" text-anchor="none" style="mix-blend-mode: normal"><g transform="scale(8.53333,8.53333)"><path d="M12.23633,4c-0.758,0 -1.45006,0.42747 -1.78906,1.10547l-0.39453,0.78906c-0.339,0.677 -1.03206,1.10547 -1.78906,1.10547h-4.26367c-1.105,0 -2,0.895 -2,2v13c0,1.105 0.895,2 2,2h22c1.105,0 2,-0.895 2,-2v-13c0,-1.105 -0.895,-2 -2,-2h-4.26367c-0.758,0 -1.45006,-0.42747 -1.78906,-1.10547l-0.39453,-0.78906c-0.339,-0.677 -1.03206,-1.10547 -1.78906,-1.10547zM6,5c-0.552,0 -1,0.448 -1,1h3c0,-0.552 -0.448,-1 -1,-1zM15,8c3.86,0 7,3.14 7,7c0,3.86 -3.14,7 -7,7c-3.86,0 -7,-3.14 -7,-7c0,-3.86 3.14,-7 7,-7zM24,9c0.552,0 1,0.448 1,1c0,0.552 -0.448,1 -1,1c-0.552,0 -1,-0.448 -1,-1c0,-0.552 0.448,-1 1,-1zM15,10c-2.76142,0 -5,2.23858 -5,5c0,2.76142 2.23858,5 5,5c2.76142,0 5,-2.23858 5,-5c0,-2.76142 -2.23858,-5 -5,-5z"></path></g></g></svg>