<svg xmlns="http://www.w3.org/2000/svg"  viewBox="0 0 48 48" width="48px" height="48px"><radialGradient id="HNGG6veMZ_bluclha7b3Ka" cx="15.819" cy="-1.665" r="40.795" gradientUnits="userSpaceOnUse"><stop offset="0" stop-color="#fd5"/><stop offset=".328" stop-color="#ff543f"/><stop offset=".348" stop-color="#fc5245"/><stop offset=".504" stop-color="#e64771"/><stop offset=".643" stop-color="#d53e91"/><stop offset=".761" stop-color="#cc39a4"/><stop offset=".841" stop-color="#c837ab"/></radialGradient><path fill="url(#HNGG6veMZ_bluclha7b3Ka)" d="M5,13v16.995c0,3.866,3.134,7,7,7h2v3.383c0,2.579,3.039,3.956,4.978,2.255l6.429-5.639H36	c3.866,0,7-3.134,7-7V13c0-3.866-3.134-7-7-7H12C8.134,6,5,9.134,5,13z"/><linearGradient id="HNGG6veMZ_bluclha7b3Kb" x1="29.422" x2="29.198" y1="36.391" y2="18.444" gradientUnits="userSpaceOnUse"><stop offset="0" stop-color="#29abe2"/><stop offset=".999" stop-color="#29abe2" stop-opacity="0"/></linearGradient><path fill="url(#HNGG6veMZ_bluclha7b3Kb)" d="M15.592,15.618H43V30c0,3.866-3.134,7-7,7H15.592V15.618z"/><radialGradient id="HNGG6veMZ_bluclha7b3Kc" cx="20.667" cy="39.575" r="18.099" gradientUnits="userSpaceOnUse"><stop offset="0" stop-color="#29abe2"/><stop offset=".613" stop-color="#a0f"/><stop offset=".989" stop-color="#8343c8" stop-opacity="0"/></radialGradient><path fill="url(#HNGG6veMZ_bluclha7b3Kc)" d="M5,20.586l18.529,9.563l0.054,8.351l-4.593,4.073C17.055,44.29,14,42.916,14,40.329V37l-2,0	c-3.866,0-7-3.134-7-7V20.586z"/><radialGradient id="HNGG6veMZ_bluclha7b3Kd" cx="24.5" cy="36.75" r="10.035" gradientUnits="userSpaceOnUse"><stop offset="0" stop-color="#29abe2"/><stop offset=".973" stop-color="#29abe2" stop-opacity=".026"/><stop offset=".999" stop-color="#29abe2" stop-opacity="0"/></radialGradient><path fill="url(#HNGG6veMZ_bluclha7b3Kd)" d="M14,27.171h20V37h-8.593l-6.429,5.636C17.039,44.336,14,42.959,14,40.38L14,27.171z"/><path d="M36,9.5H12c-1.93,0-3.5,1.57-3.5,3.5v17c0,1.93,1.57,3.5,3.5,3.5h5c0.28,0,0.5,0.22,0.5,0.5v3.564	c0,0.386,0.314,0.7,0.701,0.7c0.167,0,0.329-0.061,0.455-0.17l4.35-3.746c0.635-0.547,1.446-0.848,2.284-0.848H36	c1.93,0,3.5-1.57,3.5-3.5V13C39.5,11.07,37.93,9.5,36,9.5z M26.74,26.04c1.623,0,2.992-0.858,3.857-2.417	c0.108-0.196,0.073-0.439-0.085-0.597c-0.096-0.096-0.224-0.146-0.353-0.146c-0.084,0-0.168,0.021-0.244,0.064	c-0.458,0.256-0.938,0.386-1.426,0.386c-1.604,0-2.91-1.31-2.91-2.92c0-1.659,1.19-2.91,2.77-2.91c0.969,0,1.934,0.656,2.579,1.752	c0.213,0.366,0.571,1.15,0.571,2.288c0,2.874-2.002,4.96-4.76,4.96c-0.133,0-0.24-0.103-0.24-0.23	C26.5,26.139,26.604,26.04,26.74,26.04z M17.74,26.04c1.623,0,2.992-0.858,3.857-2.417c0.108-0.196,0.073-0.439-0.085-0.597	c-0.096-0.096-0.224-0.146-0.353-0.146c-0.084,0-0.168,0.021-0.244,0.064c-0.458,0.256-0.938,0.386-1.426,0.386	c-1.604,0-2.91-1.31-2.91-2.92c0-1.659,1.19-2.91,2.77-2.91c0.969,0,1.934,0.656,2.579,1.752c0.213,0.366,0.571,1.15,0.571,2.288	c0,2.874-2.002,4.96-4.76,4.96c-0.133,0-0.24-0.103-0.24-0.23C17.5,26.139,17.604,26.04,17.74,26.04z" opacity=".07"/><path d="M36,9H12c-2.206,0-4,1.794-4,4v17c0,2.206,1.794,4,4,4h5v3.564c0,0.662,0.539,1.2,1.201,1.2	c0.287,0,0.566-0.104,0.781-0.291l4.351-3.746C23.876,34.258,24.571,34,25.29,34H36c2.206,0,4-1.794,4-4V13C40,10.794,38.206,9,36,9	z M29.671,22.508c-0.382,0.214-0.778,0.322-1.181,0.322c-1.329,0-2.41-1.085-2.41-2.42c0-1.374,0.976-2.41,2.27-2.41	c1.171,0,1.94,1.154,2.146,1.504C30.685,19.826,31,20.519,31,21.54c0,0.399-0.043,0.781-0.124,1.142	c-0.003-0.003-0.007-0.007-0.011-0.01C30.548,22.355,30.06,22.289,29.671,22.508z M20.671,22.508	c-0.382,0.214-0.778,0.322-1.181,0.322c-1.329,0-2.41-1.085-2.41-2.42c0-1.374,0.976-2.41,2.27-2.41c1.171,0,1.94,1.154,2.146,1.504	C21.685,19.826,22,20.519,22,21.54c0,0.399-0.043,0.781-0.124,1.142c-0.003-0.003-0.007-0.007-0.011-0.01	C21.548,22.355,21.061,22.289,20.671,22.508z" opacity=".05"/><path fill="#fff" d="M36,10H12c-1.657,0-3,1.343-3,3v17c0,1.657,1.343,3,3,3h5c0.56,0,1,0.45,1,1v3.564	c0,0.171,0.201,0.263,0.331,0.152l4.349-3.745c0.73-0.63,1.66-0.97,2.61-0.97H36c1.657,0,3-1.343,3-3V13C39,11.343,37.657,10,36,10z M17.74,27C17.33,27,17,26.67,17,26.27c0-0.41,0.33-0.73,0.74-0.73c1.56,0,2.71-0.88,3.42-2.16c-0.5,0.28-1.06,0.45-1.67,0.45	c-1.88,0-3.41-1.53-3.41-3.42c0-1.88,1.38-3.41,3.27-3.41c1.31,0,2.38,0.93,3.01,2C22.6,19.41,23,20.28,23,21.54	C23,24.63,20.83,27,17.74,27z M26.74,27C26.33,27,26,26.67,26,26.27c0-0.41,0.33-0.73,0.74-0.73c1.56,0,2.71-0.88,3.42-2.16	c-0.5,0.28-1.06,0.45-1.67,0.45c-1.88,0-3.41-1.53-3.41-3.42c0-1.88,1.38-3.41,3.27-3.41c1.31,0,2.38,0.93,3.01,2	C31.6,19.41,32,20.28,32,21.54C32,24.63,29.83,27,26.74,27z"/></svg>