<svg version="1.1" xmlns="http://www.w3.org/2000/svg" xmlns:xlink="http://www.w3.org/1999/xlink" viewBox="0,0,256,256"><g fill="#ffffff" fill-rule="nonzero" stroke="none" stroke-width="1" stroke-linecap="butt" stroke-linejoin="miter" stroke-miterlimit="10" stroke-dasharray="" stroke-dashoffset="0" font-family="none" font-weight="none" font-size="none" text-anchor="none" style="mix-blend-mode: normal"><g transform="scale(8.53333,8.53333)"><path d="M23,3c-2.20914,0 -4,1.79086 -4,4c0.00178,0.28117 0.03321,0.56136 0.09375,0.83594l-9.08203,4.54102c-0.75785,-0.87251 -1.85604,-1.3746 -3.01172,-1.37695c-2.20914,0 -4,1.79086 -4,4c0,2.20914 1.79086,4 4,4c1.15606,-0.0013 2.25501,-0.5027 3.01367,-1.375l9.07617,4.53906c-0.05923,0.27472 -0.08934,0.55491 -0.08984,0.83594c0,2.20914 1.79086,4 4,4c2.20914,0 4,-1.79086 4,-4c0,-2.20914 -1.79086,-4 -4,-4c-1.15606,0.0013 -2.25501,0.5027 -3.01367,1.375l-9.07617,-4.53906c0.05923,-0.27472 0.08934,-0.55491 0.08984,-0.83594c-0.00192,-0.28051 -0.03334,-0.56005 -0.09375,-0.83398l9.08203,-4.54102c0.75821,0.87178 1.85635,1.37313 3.01172,1.375c2.20914,0 4,-1.79086 4,-4c0,-2.20914 -1.79086,-4 -4,-4z"></path></g></g></svg>