<svg version="1.1" xmlns="http://www.w3.org/2000/svg" xmlns:xlink="http://www.w3.org/1999/xlink" width="48px" height="48px" viewBox="0,0,256,256"><defs><radialGradient cx="50.04" cy="41.761" r="32.562" gradientUnits="userSpaceOnUse" id="color-1"><stop offset="0" stop-color="#bd8af5"></stop><stop offset="0.137" stop-color="#b88bf5"></stop><stop offset="0.309" stop-color="#a88ff3"></stop><stop offset="0.499" stop-color="#8f96f2"></stop><stop offset="0.702" stop-color="#6b9eef"></stop><stop offset="0.913" stop-color="#3eaaec"></stop><stop offset="1" stop-color="#29afea"></stop></radialGradient><linearGradient x1="4" y1="29.615" x2="29.654" y2="29.615" gradientUnits="userSpaceOnUse" id="color-2"><stop offset="0" stop-color="#124787"></stop><stop offset="0.923" stop-color="#173b75"></stop><stop offset="1" stop-color="#173a73"></stop></linearGradient></defs><g fill="none" fill-rule="nonzero" stroke="none" stroke-width="1" stroke-linecap="butt" stroke-linejoin="miter" stroke-miterlimit="10" stroke-dasharray="" stroke-dashoffset="0" font-family="none" font-weight="none" font-size="none" text-anchor="none" style="mix-blend-mode: normal"><g transform="scale(5.33333,5.33333)"><path d="M41.284,7.133c-3.108,1.176 -8.877,2.774 -17.284,2.774c-8.407,0 -14.176,-1.598 -17.284,-2.774c-1.314,-0.497 -2.716,0.461 -2.716,1.866v30.001c0,1.405 1.402,2.364 2.716,1.866c3.108,-1.176 8.878,-2.774 17.284,-2.774c8.406,0 14.176,1.598 17.284,2.774c1.314,0.498 2.716,-0.46 2.716,-1.865v-30.002c0,-1.405 -1.402,-2.363 -2.716,-1.866z" fill="url(#color-1)"></path><path d="M36,15c-1.105,0 -2,1.119 -2,2.5c0,1.381 0.895,2.5 2,2.5c1.105,0 2,-1.119 2,-2.5c0,-1.381 -0.895,-2.5 -2,-2.5z" fill="#ffffff"></path><path d="M24,38.093c8.407,0 14.176,1.598 17.284,2.774c0.249,0.094 0.5,0.122 0.745,0.118l-10.93,-15.926c-1.055,-1.538 -3.286,-1.647 -4.486,-0.219l-11.714,13.937c2.58,-0.406 5.61,-0.684 9.101,-0.684z" fill="#436dcd"></path><path d="M29.654,38.348l-11.448,-18.738c-1.06,-1.734 -3.533,-1.857 -4.759,-0.237l-9.447,12.477v7.151c0,1.405 1.402,2.364 2.716,1.866c3.108,-1.176 8.878,-2.774 17.284,-2.774c2.041,0 3.924,0.096 5.654,0.255z" fill="url(#color-2)"></path></g></g></svg>