<svg width="167" height="63" viewBox="0 0 167 63" fill="none" xmlns="http://www.w3.org/2000/svg">
<path d="M47.0728 7.02845C46.7761 7.04735 46.4862 7.16902 46.2632 7.39267C45.8159 7.83997 45.7705 8.55232 46.1573 9.0538C49.7572 13.7196 51.66 19.3032 51.66 25.2C51.66 39.7896 39.7895 51.66 25.2 51.66C19.3032 51.66 13.722 49.7572 9.05624 46.1574C8.55476 45.7705 7.84492 45.8146 7.39511 46.2632C6.9478 46.7105 6.9 47.4216 7.28682 47.9219C12.8258 55.1013 21.1919 59.22 30.24 59.22C46.2206 59.22 59.22 46.2206 59.22 30.24C59.22 21.1932 55.1025 12.8258 47.9243 7.28685C47.6735 7.09344 47.3695 7.00955 47.0728 7.02845ZM12.8658 11.34C12.5356 11.34 12.2191 11.4687 11.9848 11.6993C8.31941 15.2878 6.29999 20.0832 6.29999 25.2C6.29999 31.8629 9.88567 38.1057 15.6565 41.4939C15.8543 41.6111 16.0746 41.6686 16.2939 41.6686C16.6202 41.6686 16.9428 41.5414 17.1847 41.2995C17.5904 40.8937 17.6702 40.2639 17.3791 39.7688C15.9011 37.2525 15.12 34.3942 15.12 31.5C15.12 27.1971 16.7817 23.1288 19.8007 20.0468C20.0313 19.8112 20.16 19.4959 20.16 19.1658V12.6C20.16 11.9045 19.5968 11.34 18.9 11.34H12.8658ZM32.76 11.34C32.0632 11.34 31.5 11.9045 31.5 12.6V20.79C31.5 23.2218 29.5218 25.2 27.09 25.2C27.0156 25.2 26.9452 25.1855 26.8734 25.1754L26.647 25.1483C26.2715 25.1068 25.8953 25.2417 25.6282 25.5101C25.3598 25.7772 25.2262 26.1509 25.264 26.5289C25.6256 30.0809 28.5768 32.76 32.13 32.76C35.9503 32.76 39.06 29.6516 39.06 25.83V20.16H40.32C40.7383 20.16 41.1291 19.9515 41.3634 19.6063C41.5978 19.2598 41.6464 18.8205 41.4914 18.4324L38.9714 12.1324C38.7786 11.6536 38.3153 11.34 37.8 11.34H32.76Z" fill="#e0eafb"/>
<rect x="73" y="1" width="48" height="26" rx="3" fill="white"/>
<rect x="73" y="1" width="48" height="26" rx="3" fill="#F7F16C"/>
<path d="M83.3693 21.2045C82.4489 21.2045 81.6563 20.9872 80.9915 20.5526C80.3267 20.1179 79.8153 19.5192 79.4574 18.7564C79.0994 17.9936 78.9205 17.1222 78.9205 16.142C78.9205 15.1449 79.1037 14.2649 79.4702 13.5021C79.8409 12.7351 80.3565 12.1364 81.017 11.706C81.6818 11.2713 82.4574 11.054 83.3438 11.054C84.0341 11.054 84.6562 11.1818 85.2102 11.4375C85.7642 11.6932 86.218 12.0511 86.5717 12.5114C86.9254 12.9716 87.1449 13.5085 87.2301 14.1222H85.7216C85.6065 13.6747 85.3509 13.2784 84.9545 12.9332C84.5625 12.5838 84.0341 12.4091 83.3693 12.4091C82.7813 12.4091 82.2656 12.5625 81.8224 12.8693C81.3835 13.1719 81.0405 13.6001 80.7933 14.1541C80.5504 14.7038 80.429 15.3494 80.429 16.0909C80.429 16.8494 80.5483 17.5099 80.7869 18.0724C81.0298 18.6349 81.3707 19.0717 81.8097 19.3828C82.2528 19.6939 82.7727 19.8494 83.3693 19.8494C83.7614 19.8494 84.1172 19.7812 84.4368 19.6449C84.7564 19.5085 85.027 19.3125 85.2486 19.0568C85.4702 18.8011 85.6278 18.4943 85.7216 18.1364H87.2301C87.1449 18.7159 86.9339 19.2379 86.5973 19.7024C86.2649 20.1626 85.8239 20.5291 85.2741 20.8018C84.7287 21.0703 84.0938 21.2045 83.3693 21.2045ZM92.3246 21.2301C91.7024 21.2301 91.1378 21.1129 90.6307 20.8786C90.1236 20.6399 89.7209 20.2969 89.4226 19.8494C89.1243 19.3977 88.9751 18.8523 88.9751 18.2131C88.9751 17.6506 89.0859 17.1946 89.3075 16.8452C89.5291 16.4915 89.8253 16.2145 90.196 16.0142C90.5668 15.8139 90.9759 15.6648 91.4233 15.5668C91.875 15.4645 92.3288 15.3835 92.7848 15.3239C93.3814 15.2472 93.8651 15.1896 94.2358 15.1513C94.6108 15.1087 94.8835 15.0384 95.054 14.9403C95.2287 14.8423 95.3161 14.6719 95.3161 14.429V14.3778C95.3161 13.7472 95.1435 13.2571 94.7983 12.9077C94.4574 12.5582 93.9396 12.3835 93.245 12.3835C92.5249 12.3835 91.9602 12.5412 91.5511 12.8565C91.142 13.1719 90.8544 13.5085 90.6882 13.8665L89.2564 13.3551C89.5121 12.7585 89.853 12.294 90.2791 11.9616C90.7095 11.625 91.1783 11.3906 91.6854 11.2585C92.1967 11.1222 92.6996 11.054 93.1939 11.054C93.5092 11.054 93.8714 11.0923 94.2805 11.169C94.6939 11.2415 95.0923 11.3928 95.4759 11.6229C95.8636 11.853 96.1854 12.2003 96.4411 12.6648C96.6967 13.1293 96.8246 13.7514 96.8246 14.5312V21H95.3161V19.6705H95.2393C95.1371 19.8835 94.9666 20.1115 94.728 20.3544C94.4893 20.5973 94.1719 20.804 93.7756 20.9744C93.3793 21.1449 92.8956 21.2301 92.3246 21.2301ZM92.5547 19.875C93.1513 19.875 93.6541 19.7578 94.0632 19.5234C94.4766 19.2891 94.7876 18.9865 94.9964 18.6158C95.2095 18.245 95.3161 17.8551 95.3161 17.446V16.0653C95.2521 16.142 95.1115 16.2124 94.8942 16.2763C94.6811 16.3359 94.4339 16.3892 94.1527 16.4361C93.8757 16.4787 93.6051 16.517 93.3409 16.5511C93.081 16.581 92.87 16.6065 92.7081 16.6278C92.3161 16.679 91.9496 16.7621 91.6087 16.8771C91.272 16.9879 90.9993 17.1562 90.7905 17.3821C90.5859 17.6037 90.4837 17.9062 90.4837 18.2898C90.4837 18.8139 90.6776 19.2102 91.0653 19.4787C91.4574 19.7429 91.9538 19.875 92.5547 19.875ZM99.5779 21V11.1818H101.035V12.6648H101.138C101.317 12.179 101.64 11.7848 102.109 11.4822C102.578 11.1797 103.106 11.0284 103.694 11.0284C103.805 11.0284 103.944 11.0305 104.11 11.0348C104.276 11.0391 104.402 11.0455 104.487 11.054V12.5881C104.436 12.5753 104.319 12.5561 104.135 12.5305C103.956 12.5007 103.767 12.4858 103.567 12.4858C103.089 12.4858 102.663 12.5859 102.288 12.7862C101.917 12.9822 101.623 13.255 101.406 13.6044C101.193 13.9496 101.086 14.3437 101.086 14.7869V21H99.5779ZM109.684 21.2045C108.866 21.2045 108.143 20.9979 107.517 20.5845C106.89 20.1669 106.4 19.5788 106.047 18.8203C105.693 18.0575 105.516 17.1562 105.516 16.1165C105.516 15.0852 105.693 14.1903 106.047 13.4318C106.4 12.6733 106.893 12.0874 107.523 11.674C108.154 11.2607 108.883 11.054 109.709 11.054C110.349 11.054 110.854 11.1605 111.224 11.3736C111.599 11.5824 111.885 11.821 112.081 12.0895C112.281 12.3537 112.437 12.571 112.547 12.7415H112.675V7.90909H114.184V21H112.726V19.4915H112.547C112.437 19.6705 112.279 19.8963 112.074 20.169C111.87 20.4375 111.578 20.6783 111.199 20.8913C110.819 21.1001 110.314 21.2045 109.684 21.2045ZM109.888 19.8494C110.493 19.8494 111.005 19.6918 111.422 19.3764C111.84 19.0568 112.157 18.6158 112.375 18.0533C112.592 17.4865 112.701 16.8324 112.701 16.0909C112.701 15.358 112.594 14.7166 112.381 14.1669C112.168 13.6129 111.853 13.1825 111.435 12.8757C111.018 12.5646 110.502 12.4091 109.888 12.4091C109.249 12.4091 108.716 12.5732 108.29 12.9013C107.868 13.2251 107.551 13.6662 107.338 14.2244C107.129 14.7784 107.025 15.4006 107.025 16.0909C107.025 16.7898 107.131 17.4247 107.344 17.9957C107.562 18.5625 107.881 19.0142 108.303 19.3509C108.729 19.6832 109.258 19.8494 109.888 19.8494Z" fill="black"/>
<rect x="73" y="33" width="94" height="26" rx="3" fill="white"/>
<rect x="73" y="33" width="94" height="26" rx="3" fill="#F7F16C"/>
<path d="M83.3438 56.8864C82.6151 56.8864 81.9886 56.7926 81.4645 56.6051C80.9403 56.4219 80.5036 56.179 80.1541 55.8764C79.8089 55.5781 79.5341 55.2585 79.3295 54.9176L80.5312 54.0739C80.6676 54.2528 80.8402 54.4574 81.049 54.6875C81.2578 54.9219 81.5433 55.1243 81.9055 55.2947C82.272 55.4695 82.7514 55.5568 83.3438 55.5568C84.1364 55.5568 84.7905 55.3651 85.3061 54.9815C85.8217 54.598 86.0795 53.9972 86.0795 53.179V51.1847H85.9517C85.8409 51.3636 85.6832 51.5852 85.4787 51.8494C85.2784 52.1094 84.9886 52.3416 84.6094 52.5462C84.2344 52.7464 83.7273 52.8466 83.0881 52.8466C82.2955 52.8466 81.5838 52.6591 80.9531 52.2841C80.3267 51.9091 79.8303 51.3636 79.4638 50.6477C79.1016 49.9318 78.9205 49.0625 78.9205 48.0398C78.9205 47.0341 79.0973 46.1584 79.451 45.4126C79.8047 44.6626 80.2969 44.0831 80.9276 43.674C81.5582 43.2607 82.2869 43.054 83.1136 43.054C83.7528 43.054 84.2599 43.1605 84.6349 43.3736C85.0142 43.5824 85.304 43.821 85.5043 44.0895C85.7088 44.3537 85.8665 44.571 85.9773 44.7415H86.1307V43.1818H87.5881V53.2812C87.5881 54.125 87.3963 54.8111 87.0128 55.3395C86.6335 55.8722 86.1222 56.2621 85.4787 56.5092C84.8395 56.7607 84.1278 56.8864 83.3438 56.8864ZM83.2926 51.4915C83.8977 51.4915 84.4091 51.353 84.8267 51.076C85.2443 50.799 85.5618 50.4006 85.7791 49.8807C85.9964 49.3608 86.1051 48.7386 86.1051 48.0142C86.1051 47.3068 85.9986 46.6825 85.7855 46.1413C85.5724 45.6001 85.2571 45.1761 84.8395 44.8693C84.4219 44.5625 83.9063 44.4091 83.2926 44.4091C82.6534 44.4091 82.1207 44.571 81.6946 44.8949C81.2727 45.2187 80.9553 45.6534 80.7422 46.1989C80.5334 46.7443 80.429 47.3494 80.429 48.0142C80.429 48.696 80.5355 49.299 80.7486 49.8232C80.9659 50.343 81.2855 50.7521 81.7074 51.0504C82.1335 51.3445 82.6619 51.4915 83.2926 51.4915ZM94.4659 53.2045C93.5199 53.2045 92.7038 52.9957 92.0178 52.5781C91.3359 52.1562 90.8097 51.5682 90.4389 50.8139C90.0724 50.0554 89.8892 49.1733 89.8892 48.1676C89.8892 47.1619 90.0724 46.2756 90.4389 45.5085C90.8097 44.7372 91.3253 44.1364 91.9858 43.706C92.6506 43.2713 93.4261 43.054 94.3125 43.054C94.8239 43.054 95.3288 43.1392 95.8274 43.3097C96.326 43.4801 96.7798 43.7571 97.1889 44.1406C97.598 44.5199 97.924 45.0227 98.1669 45.6491C98.4098 46.2756 98.5312 47.0469 98.5312 47.9631V48.6023H90.9631V47.2983H96.9972C96.9972 46.7443 96.8864 46.25 96.6648 45.8153C96.4474 45.3807 96.1364 45.0376 95.7315 44.7862C95.331 44.5348 94.858 44.4091 94.3125 44.4091C93.7116 44.4091 93.1918 44.5582 92.7528 44.8565C92.3182 45.1506 91.9837 45.5341 91.7493 46.0071C91.5149 46.4801 91.3977 46.9872 91.3977 47.5284V48.3977C91.3977 49.1392 91.5256 49.7678 91.7812 50.2834C92.0412 50.7947 92.4013 51.1847 92.8615 51.4531C93.3217 51.7173 93.8565 51.8494 94.4659 51.8494C94.8622 51.8494 95.2202 51.794 95.5398 51.6832C95.8636 51.5682 96.1428 51.3977 96.3771 51.1719C96.6115 50.9418 96.7926 50.6562 96.9205 50.3153L98.3778 50.7244C98.2244 51.2188 97.9666 51.6534 97.6044 52.0284C97.2422 52.3991 96.7947 52.6889 96.2621 52.8977C95.7294 53.1023 95.1307 53.2045 94.4659 53.2045ZM102.335 47.0938V53H100.826V43.1818H102.283V44.7159H102.411C102.641 44.2173 102.991 43.8168 103.46 43.5142C103.928 43.2074 104.533 43.054 105.275 43.054C105.94 43.054 106.521 43.1903 107.02 43.4631C107.518 43.7315 107.906 44.1406 108.183 44.6903C108.46 45.2358 108.599 45.9261 108.599 46.7614V53H107.09V46.8636C107.09 46.0923 106.89 45.4915 106.489 45.0611C106.089 44.6264 105.539 44.4091 104.84 44.4091C104.359 44.4091 103.928 44.5135 103.549 44.7223C103.174 44.9311 102.878 45.2358 102.661 45.6364C102.443 46.0369 102.335 46.5227 102.335 47.0938ZM115.472 53.2045C114.526 53.2045 113.71 52.9957 113.024 52.5781C112.342 52.1562 111.816 51.5682 111.445 50.8139C111.078 50.0554 110.895 49.1733 110.895 48.1676C110.895 47.1619 111.078 46.2756 111.445 45.5085C111.816 44.7372 112.331 44.1364 112.992 43.706C113.656 43.2713 114.432 43.054 115.318 43.054C115.83 43.054 116.335 43.1392 116.833 43.3097C117.332 43.4801 117.786 43.7571 118.195 44.1406C118.604 44.5199 118.93 45.0227 119.173 45.6491C119.416 46.2756 119.537 47.0469 119.537 47.9631V48.6023H111.969V47.2983H118.003C118.003 46.7443 117.892 46.25 117.671 45.8153C117.453 45.3807 117.142 45.0376 116.737 44.7862C116.337 44.5348 115.864 44.4091 115.318 44.4091C114.718 44.4091 114.198 44.5582 113.759 44.8565C113.324 45.1506 112.99 45.5341 112.755 46.0071C112.521 46.4801 112.404 46.9872 112.404 47.5284V48.3977C112.404 49.1392 112.531 49.7678 112.787 50.2834C113.047 50.7947 113.407 51.1847 113.867 51.4531C114.328 51.7173 114.862 51.8494 115.472 51.8494C115.868 51.8494 116.226 51.794 116.546 51.6832C116.869 51.5682 117.149 51.3977 117.383 51.1719C117.617 50.9418 117.798 50.6562 117.926 50.3153L119.384 50.7244C119.23 51.2188 118.972 51.6534 118.61 52.0284C118.248 52.3991 117.801 52.6889 117.268 52.8977C116.735 53.1023 116.137 53.2045 115.472 53.2045ZM121.832 53V43.1818H123.289V44.6648H123.392C123.57 44.179 123.894 43.7848 124.363 43.4822C124.832 43.1797 125.36 43.0284 125.948 43.0284C126.059 43.0284 126.198 43.0305 126.364 43.0348C126.53 43.0391 126.656 43.0455 126.741 43.054V44.5881C126.69 44.5753 126.573 44.5561 126.389 44.5305C126.21 44.5007 126.021 44.4858 125.82 44.4858C125.343 44.4858 124.917 44.5859 124.542 44.7862C124.171 44.9822 123.877 45.255 123.66 45.6044C123.447 45.9496 123.34 46.3437 123.34 46.7869V53H121.832ZM131.418 53.2301C130.796 53.2301 130.232 53.1129 129.724 52.8786C129.217 52.6399 128.815 52.2969 128.516 51.8494C128.218 51.3977 128.069 50.8523 128.069 50.2131C128.069 49.6506 128.18 49.1946 128.401 48.8452C128.623 48.4915 128.919 48.2145 129.29 48.0142C129.661 47.8139 130.07 47.6648 130.517 47.5668C130.969 47.4645 131.423 47.3835 131.879 47.3239C132.475 47.2472 132.959 47.1896 133.33 47.1513C133.705 47.1087 133.977 47.0384 134.148 46.9403C134.322 46.8423 134.41 46.6719 134.41 46.429V46.3778C134.41 45.7472 134.237 45.2571 133.892 44.9077C133.551 44.5582 133.033 44.3835 132.339 44.3835C131.619 44.3835 131.054 44.5412 130.645 44.8565C130.236 45.1719 129.948 45.5085 129.782 45.8665L128.35 45.3551C128.606 44.7585 128.947 44.294 129.373 43.9616C129.803 43.625 130.272 43.3906 130.779 43.2585C131.29 43.1222 131.793 43.054 132.288 43.054C132.603 43.054 132.965 43.0923 133.374 43.169C133.788 43.2415 134.186 43.3928 134.57 43.6229C134.957 43.853 135.279 44.2003 135.535 44.6648C135.79 45.1293 135.918 45.7514 135.918 46.5312V53H134.41V51.6705H134.333C134.231 51.8835 134.06 52.1115 133.822 52.3544C133.583 52.5973 133.266 52.804 132.869 52.9744C132.473 53.1449 131.989 53.2301 131.418 53.2301ZM131.648 51.875C132.245 51.875 132.748 51.7578 133.157 51.5234C133.57 51.2891 133.881 50.9865 134.09 50.6158C134.303 50.245 134.41 49.8551 134.41 49.446V48.0653C134.346 48.142 134.205 48.2124 133.988 48.2763C133.775 48.3359 133.528 48.3892 133.246 48.4361C132.969 48.4787 132.699 48.517 132.435 48.5511C132.175 48.581 131.964 48.6065 131.802 48.6278C131.41 48.679 131.043 48.7621 130.702 48.8771C130.366 48.9879 130.093 49.1562 129.884 49.3821C129.68 49.6037 129.577 49.9062 129.577 50.2898C129.577 50.8139 129.771 51.2102 130.159 51.4787C130.551 51.7429 131.048 51.875 131.648 51.875ZM142.942 43.1818V44.4602H137.854V43.1818H142.942ZM139.336 40.8295H140.845V50.1875C140.845 50.6136 140.907 50.9332 141.03 51.1463C141.158 51.3551 141.32 51.4957 141.516 51.5682C141.716 51.6364 141.927 51.6705 142.149 51.6705C142.315 51.6705 142.452 51.6619 142.558 51.6449C142.665 51.6236 142.75 51.6065 142.814 51.5938L143.121 52.9489C143.018 52.9872 142.876 53.0256 142.692 53.0639C142.509 53.1065 142.277 53.1278 141.996 53.1278C141.569 53.1278 141.152 53.0362 140.743 52.853C140.338 52.6697 140.001 52.3906 139.733 52.0156C139.469 51.6406 139.336 51.1676 139.336 50.5966V40.8295ZM149.094 53.2045C148.208 53.2045 147.43 52.9936 146.761 52.5717C146.096 52.1499 145.576 51.5597 145.201 50.8011C144.83 50.0426 144.645 49.1562 144.645 48.142C144.645 47.1193 144.83 46.2266 145.201 45.4638C145.576 44.701 146.096 44.1087 146.761 43.6868C147.43 43.2649 148.208 43.054 149.094 43.054C149.98 43.054 150.756 43.2649 151.421 43.6868C152.09 44.1087 152.61 44.701 152.98 45.4638C153.355 46.2266 153.543 47.1193 153.543 48.142C153.543 49.1562 153.355 50.0426 152.98 50.8011C152.61 51.5597 152.09 52.1499 151.421 52.5717C150.756 52.9936 149.98 53.2045 149.094 53.2045ZM149.094 51.8494C149.767 51.8494 150.321 51.6768 150.756 51.3317C151.191 50.9865 151.512 50.5327 151.721 49.9702C151.93 49.4077 152.034 48.7983 152.034 48.142C152.034 47.4858 151.93 46.8743 151.721 46.3075C151.512 45.7408 151.191 45.2827 150.756 44.9332C150.321 44.5838 149.767 44.4091 149.094 44.4091C148.421 44.4091 147.867 44.5838 147.432 44.9332C146.997 45.2827 146.676 45.7408 146.467 46.3075C146.258 46.8743 146.154 47.4858 146.154 48.142C146.154 48.7983 146.258 49.4077 146.467 49.9702C146.676 50.5327 146.997 50.9865 147.432 51.3317C147.867 51.6768 148.421 51.8494 149.094 51.8494ZM155.846 53V43.1818H157.303V44.6648H157.405C157.584 44.179 157.908 43.7848 158.377 43.4822C158.846 43.1797 159.374 43.0284 159.962 43.0284C160.073 43.0284 160.211 43.0305 160.377 43.0348C160.544 43.0391 160.669 43.0455 160.755 43.054V44.5881C160.703 44.5753 160.586 44.5561 160.403 44.5305C160.224 44.5007 160.034 44.4858 159.834 44.4858C159.357 44.4858 158.931 44.5859 158.556 44.7862C158.185 44.9822 157.891 45.255 157.674 45.6044C157.461 45.9496 157.354 46.3437 157.354 46.7869V53H155.846Z" fill="black"/>
</svg>
