<?xml version="1.0" encoding="utf-8"?>
<svg version="1.1" id="Layer_1" xmlns="http://www.w3.org/2000/svg" xmlns:xlink="http://www.w3.org/1999/xlink" x="0px" y="0px"
	 viewBox="0 0 820.7 722.4" style="enable-background:new 0 0 820.7 722.4;" xml:space="preserve" className='logo'>
<g>
	<rect class="st0" width="820.7" height="722.4"/>
	<path d="M745,306.7c-0.3-17.2-2.1-34.2-4.9-51.1c-10.9-63.8-37.7-120.1-79.4-169.4c-4.3-5.1-8.8-10-13.5-14.8
		c-2.9-3-6.6-3.3-9.5-1.3c-2.8,1.9-3.6,4.8-2.4,8.9c0.3,1,0.7,1.9,1,2.8c16,42.7,24.2,86.8,24.5,132.4c-0.4,8.3-0.8,16.6-1.2,24.9
		c-1.2,22.7-4.8,45-10.5,66.9c-18.3,70.5-53.7,131.1-107.1,180.6c-69.6,64.5-152.3,97.7-247.1,100.4c-23.9,0.7-47.6-1.3-71.1-5.4
		c-24-4.1-47.5-10.5-70.2-19.3c-5-1.9-8.5-1-10.5,2.5c-2,3.3-1.2,6.4,2.7,10.1c3.3,3.1,6.6,6.1,10,9.1
		c65.2,56.5,141.1,85.6,227.2,88.1c20.8,0.6,41.6-1,62.2-4.4c74.2-12,139-43.7,192.5-96.5C711.1,498.8,747,410.3,745,306.7z"/>
	<path d="M174,403.9c2.9-2.2,3.4-5.1,1.8-10c-0.2-0.5-0.3-0.9-0.5-1.4c-12.4-35-15.9-71-10.6-107.7c7-48.3,27.5-90.1,60.9-125.5
		c2.7-2.9,4-5.8,4-9.8c-0.1-12.5-0.1-25-0.1-37.5c0-12.3,0-24.7,0-37c0-8-2.4-10.5-10.4-10.5c-24.7,0-49.3,0-74-0.1
		c-4.1,0-7.4,1.2-10.3,4c-41,39.9-62.8,88.6-66.2,145.5c-1.3,21.7,1.2,43.2,6.8,64.3c14,52.6,43.6,94.1,88.5,124.7
		C168.4,406,171,406.2,174,403.9z"/>
	<path d="M310.7,247.1c6.1,45.6,49.2,77.8,94.6,70.5c40.3-6.5,69.6-40.8,69.6-81.7c0-8.2,0-16.3,0-24.5c0-10.7,0-21.3,0-32
		c0-6.8,1.8-8.5,8.6-8.6c6.3-0.1,12.7,0.1,19-0.1c5.8-0.2,8.4-3.7,7.4-9.3c-0.2-1-0.3-2-0.5-2.9c-7.6-32.1-21.4-61.1-41.4-87.3
		c-3.7-4.8-7.8-6.6-13.6-6.5c-16.8,0.2-33.6,0-50.5,0.1c-1.8,0-3.7,0.1-5.5,0.4c-4.2,0.7-6.1,2.7-6.7,6.9c-0.2,1.6-0.1,3.3-0.1,5
		c0,26.2,0,52.3,0,78.5c0,10.8-2.1,21.2-6.5,31.1c-13,28.6-35.5,44.5-66.5,48.7c-6.5,0.9-8.4,3-8.1,9.4
		C310.6,245.4,310.6,246.3,310.7,247.1z"/>
</g>
</svg>
