<?xml version="1.0" encoding="utf-8"?>
<!-- Generator: Adobe Illustrator 24.0.0, SVG Export Plug-In . SVG Version: 6.00 Build 0)  -->
<svg version="1.1" id="Layer_1" xmlns="http://www.w3.org/2000/svg" xmlns:xlink="http://www.w3.org/1999/xlink" x="0px" y="0px"
	 viewBox="0 0 167 63" style="enable-background:new 0 0 167 63;" xml:space="preserve">
<style type="text/css">
	.st0{fill:none;}
</style>
<path d="M-256.7-211.3c-0.3,0-0.6,0.1-0.8,0.4c-0.4,0.5-0.5,1.2-0.1,1.7c3.6,4.8,5.5,10.5,5.5,16.5c0,14.9-11.9,27-26.5,27
	c-5.9,0-11.5-1.9-16.1-5.6c-0.5-0.4-1.2-0.3-1.7,0.1c-0.4,0.5-0.5,1.2-0.1,1.7c5.5,7.3,13.9,11.5,23,11.5c16,0,29-13.3,29-29.6
	c0-9.2-4.1-17.8-11.3-23.4C-256.1-211.3-256.4-211.4-256.7-211.3z M-290.9-206.9c-0.3,0-0.6,0.1-0.9,0.4c-3.7,3.7-5.7,8.6-5.7,13.8
	c0,6.8,3.6,13.2,9.4,16.6c0.2,0.1,0.4,0.2,0.6,0.2c0.3,0,0.6-0.1,0.9-0.4c0.4-0.4,0.5-1.1,0.2-1.6c-1.5-2.6-2.3-5.5-2.3-8.4
	c0-4.4,1.7-8.5,4.7-11.7c0.2-0.2,0.4-0.6,0.4-0.9v-6.7c0-0.7-0.6-1.3-1.3-1.3H-290.9z M-271-206.9c-0.7,0-1.3,0.6-1.3,1.3v8.4
	c0,2.5-2,4.5-4.4,4.5c-0.1,0-0.1,0-0.2,0l-0.2,0c-0.4,0-0.8,0.1-1,0.4c-0.3,0.3-0.4,0.7-0.4,1c0.4,3.6,3.3,6.4,6.9,6.4
	c3.8,0,6.9-3.2,6.9-7.1v-5.8h1.3c0.4,0,0.8-0.2,1-0.6c0.2-0.4,0.3-0.8,0.1-1.2l-2.5-6.4c-0.2-0.5-0.7-0.8-1.2-0.8H-271z"/>
<rect id="_x3C_Slice_x3E_" x="-320" y="-217" class="st0" width="94" height="82"/>
<rect id="_x3C_Slice_x3E__1_" x="56" y="37" class="st0" width="235" height="72"/>
<rect id="_x3C_Slice_x3E__2_" x="10" y="-89" class="st0" width="245" height="194"/>
<rect id="_x3C_Slice_x3E__3_" x="-472" y="-368" class="st0" width="489" height="283"/>
<rect id="_x3C_Slice_x3E__4_" x="-412" y="-81" class="st0" width="4" height="1"/>
<rect id="_x3C_Slice_x3E__5_" x="-328" y="-272" class="st0" width="129" height="166"/>
</svg>
