<svg width="256" height="256" viewBox="0 0 256 256" fill="none" xmlns="http://www.w3.org/2000/svg">
<path d="M68.9017 200.263C84.1443 200.105 97.2992 193.665 105.598 184.023C113.896 174.382 117.624 162.211 117.501 150.261C117.378 138.311 113.4 126.192 104.904 116.723C96.4085 107.255 83.1237 101.087 67.8811 101.244C64.1746 101.282 60.5969 101.713 57.1771 102.45C62.6549 91.096 77.0359 63.0523 89.2806 53.6283C93.3345 50.6006 95.4435 45.626 94.8001 40.609C94.1568 35.5921 90.8607 31.3099 86.1739 29.4021C81.487 27.4942 76.1355 28.2563 72.1682 31.3966C51.9996 46.919 33.8626 83.2391 27.205 100.978C20.5475 118.717 18.8566 134.186 19.2087 144.179C19.2342 145.165 19.2818 147.109 19.2818 147.109C19.2818 147.109 19.2675 149.884 19.2818 151.273C19.405 163.223 23.383 175.314 31.8786 184.783C40.3741 194.251 53.6591 200.42 68.9017 200.263Z" fill="white"/>
<path d="M189.902 200.507C205.144 200.35 218.299 193.909 226.598 184.267C234.896 174.626 238.624 162.455 238.501 150.505C238.378 138.555 234.399 126.436 225.904 116.968C217.408 107.499 204.124 101.331 188.881 101.488C185.174 101.526 181.597 101.957 178.177 102.694C183.655 91.3402 198.036 63.2965 210.281 53.8725C214.334 50.8448 216.443 45.8701 215.8 40.8532C215.157 35.8362 211.861 31.5541 207.174 29.6462C202.487 27.7384 197.135 28.5004 193.168 31.6407C172.999 47.1631 154.862 83.4832 148.205 101.222C141.547 118.962 139.857 134.43 140.209 144.423C140.234 145.41 140.282 147.313 140.282 147.313C140.282 147.313 140.267 150.128 140.282 151.517C140.405 163.467 144.383 175.558 152.878 185.027C161.374 194.496 174.659 200.664 189.902 200.507Z" fill="white"/>
</svg>
