<svg version="1.1" xmlns="http://www.w3.org/2000/svg" xmlns:xlink="http://www.w3.org/1999/xlink" viewBox="0,0,256,256"><g fill="#ffffff" fill-rule="nonzero" stroke="none" stroke-width="1" stroke-linecap="butt" stroke-linejoin="miter" stroke-miterlimit="10" stroke-dasharray="" stroke-dashoffset="0" font-family="none" font-weight="none" font-size="none" text-anchor="none" style="mix-blend-mode: normal"><g transform="scale(4,4)"><path d="M23.67578,13.99609c-0.13274,-0.00123 -0.26697,0.01073 -0.40234,0.03711c-0.219,0.043 -8.31716,1.44116 -13.91016,8.16016c-4.736,5.679 -5.09219,11.30447 -5.36719,15.35547c-0.00783,0.11449 0.00235,0.22451 0.00977,0.33594c-0.00047,0.04661 -0.00586,0.09195 -0.00586,0.13867c0,5.843 3.82158,12.85447 13.14258,12.85547c7.129,0 12.61719,-5.29747 12.61719,-12.85547c0,-4.985 -2.24031,-12.85547 -12.32031,-12.85547c-1.97877,0 -3.78382,0.34871 -5.39062,0.9707c0.25267,-0.36662 0.51735,-0.73448 0.80273,-1.10352c2.819,-3.638 7.25549,-6.14161 11.27149,-7.09961c1.035,-0.249 1.70014,-1.27022 1.49414,-2.32422c-0.1855,-0.94763 -1.0122,-1.60665 -1.94141,-1.61523zM53.67578,13.99609c-0.13274,-0.00123 -0.26697,0.01073 -0.40234,0.03711c-0.219,0.043 -8.31716,1.44116 -13.91016,8.16016c-4.736,5.679 -5.09219,11.30447 -5.36719,15.35547c-0.00783,0.11449 0.00235,0.22451 0.00977,0.33594c-0.00047,0.04661 -0.00586,0.09195 -0.00586,0.13867c0,5.843 3.82158,12.85447 13.14258,12.85547c7.129,0 12.61719,-5.29747 12.61719,-12.85547c0,-4.985 -2.24031,-12.85547 -12.32031,-12.85547c-1.97877,0 -3.78382,0.34871 -5.39062,0.9707c0.25267,-0.36662 0.51735,-0.73448 0.80273,-1.10352c2.819,-3.638 7.25549,-6.14161 11.27148,-7.09961c1.035,-0.249 1.70014,-1.27022 1.49414,-2.32422c-0.1855,-0.94763 -1.0122,-1.60665 -1.94141,-1.61523z"></path></g></g></svg>