<svg width="156" height="102" viewBox="0 0 156 102" fill="none" xmlns="http://www.w3.org/2000/svg">
<g clip-path="url(#clip0_451_257)">
<g clip-path="url(#clip1_451_257)">
<path d="M6.79141 41.7904C4.93353 42.9464 4.35257 45.4411 5.50858 47.2989L10.7908 55.7882C8.91465 56.9556 8.34059 59.4207 9.50795 61.2968L14.7902 69.786C15.9575 71.6622 18.4226 72.2362 20.2987 71.0689L22.4116 74.4646C23.5676 76.3225 26.0623 76.9034 27.9202 75.7474L48.2944 63.0701C50.1523 61.9141 50.7333 59.4194 49.5772 57.5615L36.281 36.1925C36.0007 35.7423 35.5531 35.4218 35.0366 35.3015L22.879 32.4703C22.3625 32.35 21.8194 32.4397 21.3691 32.7198L6.79141 41.7904ZM8.90428 45.1861L22.4871 36.7345L25.6564 41.8281C26.2396 42.7653 27.4735 43.0527 28.4107 42.4695L33.5043 39.3002L34.5607 40.998L14.1865 53.6753L8.90428 45.1861ZM12.9037 59.1839L15.4504 57.5992C16.8563 56.7245 18.7071 57.1555 19.5819 58.5614C20.4566 59.9672 20.0256 61.8181 18.6198 62.6928L17.7708 63.221L19.8837 66.6167L18.1859 67.6732L12.9037 59.1839ZM24.7886 51.7888L26.4865 50.7324L31.7687 59.2216L29.8088 60.4411L23.2272 56.8497L26.6751 62.391L24.9773 63.4474L19.7198 54.9979L21.6797 53.7785L28.2406 57.3367L24.7886 51.7888ZM31.6418 47.5292C33.6327 46.2928 34.9904 46.7104 35.8021 47.2958L32.6385 49.2642C31.1273 50.1739 31.8439 51.7723 32.0859 52.1611L32.9607 53.5671C33.2058 53.961 34.4717 55.2127 36.1063 54.1721C36.5836 53.868 37.2899 53.0454 37.3159 52.9962L36.4107 51.6228L34.7493 52.6566L33.7294 50.936L37.0886 48.8459L39.6038 52.8882C39.5611 53.0467 39.0137 54.6219 37.0426 55.9355C36.5064 56.2927 33.7309 58.0904 31.2629 54.6236L30.3942 53.2275C30.0192 52.6247 28.1132 49.7201 31.6418 47.5292ZM15.6579 59.8253L16.7144 61.5232L17.5633 60.9949C18.0319 60.7034 18.1756 60.0864 17.884 59.6178C17.5924 59.1492 16.9755 59.0055 16.5069 59.2971L15.6579 59.8253ZM23.6944 68.956L44.0687 56.2787L46.1815 59.6744L25.8073 72.3517L23.6944 68.956Z" fill="#020887"/>
</g>
<g clip-path="url(#clip2_451_257)">
<path d="M42.4653 20.199C41.4881 20.6914 41.0867 21.9078 41.5791 22.885L43.8288 27.3503L42.9357 27.8002C41.9489 28.2974 41.5523 29.4994 42.0495 30.4862L44.2992 34.9515C44.7964 35.9384 45.9984 36.335 46.9852 35.8378L47.8783 35.3878L48.7782 37.1739C49.2705 38.1512 50.4869 38.5525 51.4642 38.0602L62.1808 32.6608C63.1581 32.1685 63.5594 30.9521 63.0671 29.9748L62.1672 28.1887C63.154 27.6915 63.5506 26.4896 63.0534 25.5027L60.8037 21.0374C60.3065 20.0506 59.1045 19.654 58.1177 20.1512L57.4041 18.7349C57.2847 18.4981 57.0762 18.3184 56.8244 18.2353L50.8963 16.2793C50.6444 16.1962 50.3699 16.2165 50.133 16.3358L42.4653 20.199ZM43.3652 21.9851L50.5096 18.3856L51.8595 21.0648C52.1078 21.5577 52.7095 21.7562 53.2025 21.5079L55.8816 20.158L56.3316 21.0511L45.6149 26.4504L43.3652 21.9851ZM43.8356 29.5864L44.7391 29.1311L46.5664 31.7075L45.6898 28.6522L46.4502 28.269L48.384 30.7962L47.4026 27.7892L48.3009 27.3366L49.7412 32.1835L48.8324 32.6413L46.9901 30.2869L47.7894 33.1669L46.8771 33.6265L43.8356 29.5864ZM49.1939 26.8867L51.8731 25.5369L52.3231 26.4299L50.537 27.3298L50.9869 28.2229L52.4154 27.5031L52.8654 28.3962L51.4368 29.1159L51.8868 30.009L53.6729 29.1091L54.1228 30.0022L51.4437 31.352L49.1939 26.8867ZM52.7662 25.0869L54.1058 24.412C54.8452 24.0395 55.7477 24.3372 56.1203 25.0767C56.2939 25.4214 56.3169 25.7995 56.2231 26.1446C56.5562 26.2746 56.8465 26.5181 57.0202 26.8628C57.3927 27.6023 57.0949 28.5047 56.3555 28.8773L55.0159 29.5522L52.7662 25.0869ZM56.3384 23.2872L57.678 22.6122C58.4174 22.2397 59.3199 22.5375 59.6925 23.2769C60.0651 24.0164 59.7673 24.9189 59.0278 25.2914L58.5813 25.5164L59.4812 27.3025L58.5881 27.7524L56.3384 23.2872ZM54.1092 25.53L54.5591 26.4231L55.0057 26.1981C55.2521 26.0739 55.3514 25.7731 55.2272 25.5266C55.103 25.2801 54.8022 25.1809 54.5557 25.3051L54.1092 25.53ZM57.6814 23.7303L58.1314 24.6233L58.5779 24.3984C58.8244 24.2742 58.9236 23.9733 58.7994 23.7269C58.6753 23.4804 58.3744 23.3811 58.1279 23.5053L57.6814 23.7303ZM55.0091 27.3162L55.459 28.2092L55.9055 27.9842C56.152 27.8601 56.2513 27.5592 56.1271 27.3127C56.0029 27.0663 55.7021 26.967 55.4556 27.0912L55.0091 27.3162ZM49.6644 34.4879L60.3811 29.0886L61.281 30.8747L50.5643 36.274L49.6644 34.4879Z" fill="#A30015"/>
</g>
<g clip-path="url(#clip3_451_257)">
<path d="M75 0C72.8115 0 71 1.76621 71 3.9V13.65C68.79 13.65 67 15.3953 67 17.55V27.3C67 29.4548 68.79 31.2 71 31.2V35.1C71 37.2338 72.8115 39 75 39H99C101.189 39 103 37.2338 103 35.1V10.5574C103 10.0403 102.789 9.54435 102.414 9.17871L93.5859 0.571291C93.2109 0.205588 92.7023 9.75e-05 92.1719 0H75ZM75 3.9H91V9.75C91 10.8264 91.896 11.7 93 11.7H99V13.65H75V3.9ZM75 17.55H77V24.375C77 25.9896 75.656 27.3 74 27.3C72.344 27.3 71 25.9896 71 24.375H73C73 24.9132 73.448 25.35 74 25.35C74.552 25.35 75 24.9132 75 24.375V17.55ZM79 17.55H82C83.656 17.55 85 18.8604 85 20.475C85 22.0896 83.656 23.4 82 23.4H81V27.3H79V17.55ZM91.0703 17.5538C93.4143 17.5558 94.3466 18.601 94.7266 19.5038H92.1406H91C89.236 19.4785 89 21.171 89 21.6176V23.2324C89 23.6848 89.4136 25.3733 91.3516 25.3538C91.9176 25.348 92.952 25.0307 93 25.0034L92.9571 23.4H91L91.043 21.45H95V26.0927C94.88 26.2019 93.5829 27.224 91.2149 27.2962C90.5709 27.3157 87.264 27.3742 87 23.2324V21.629C87 20.9367 86.9163 17.5499 91.0703 17.5538ZM81 19.5V21.45H82C82.552 21.45 83 21.0132 83 20.475C83 19.9368 82.552 19.5 82 19.5H81ZM75 31.2H99V35.1H75V31.2Z" fill="#D65780"/>
</g>
<g clip-path="url(#clip4_451_257)">
<path d="M137.149 39.8097C135.754 39.041 133.963 39.5599 133.194 40.9553L129.682 47.3316C128.273 46.5554 126.503 47.0681 125.727 48.4773L122.214 54.8536C121.438 56.2627 121.951 58.0327 123.36 58.8089L121.955 61.3594C121.187 62.7549 121.706 64.5461 123.101 65.3148L138.404 73.7437C139.8 74.5124 141.591 73.9935 142.359 72.5981L151.2 56.5478C151.386 56.2095 151.43 55.8112 151.323 55.4403L148.794 46.7108C148.687 46.3399 148.437 46.0269 148.099 45.8406L137.149 39.8097ZM135.744 42.3602L145.947 47.9795L143.839 51.8053C143.452 52.5092 143.708 53.3952 144.412 53.7829L148.238 55.8902L139.809 71.1932L124.506 62.7642L125.911 60.2137L136.113 65.8331C137.522 66.6092 139.292 66.0965 140.068 64.6874L143.58 58.3111C144.356 56.9019 143.844 55.1319 142.434 54.3558L132.232 48.7364L135.744 42.3602ZM130.872 51.3117C132.366 52.1362 132.584 53.1471 132.501 53.871L130.125 52.5622C129.01 51.9261 128.248 52.9526 128.087 53.2447L127.505 54.3007C127.343 54.5953 126.999 55.8436 128.242 56.5115C128.605 56.7064 129.378 56.8647 129.418 56.8637L129.968 55.8001L128.72 55.1127L129.45 53.8526L131.973 55.2423L130.301 58.2785C130.185 58.3078 128.99 58.5207 127.454 57.7362C127.036 57.5228 124.907 56.3997 126.23 53.5983L126.808 52.5497C127.057 52.097 128.225 49.8502 130.872 51.3117ZM134.653 53.3942L135.929 54.0966L132.417 60.4729L131.141 59.7705L134.653 53.3942ZM137.204 54.799L141.03 56.9063L140.327 58.1815L137.777 56.7767L137.074 58.052L139.114 59.1755L138.412 60.4508L136.372 59.3272L134.967 61.8777L133.692 61.1753L137.204 54.799Z" fill="#3DA35D"/>
</g>
<g clip-path="url(#clip5_451_257)">
<path d="M116 13C114.906 13 114 13.9058 114 15V20H113C111.895 20 111 20.895 111 22V27C111 28.105 111.895 29 113 29H114V31C114 32.0943 114.906 33 116 33H128C129.094 33 130 32.0943 130 31V29C131.105 29 132 28.105 132 27V22C132 20.895 131.105 20 130 20V18.4141C130 18.1489 129.895 17.8945 129.707 17.707L125.293 13.293C125.105 13.1054 124.851 13.0001 124.586 13H116ZM116 15H124V18C124 18.552 124.448 19 125 19H128V20H116V15ZM113 22H114.012L114.484 25.1231L115.076 22H115.928L116.518 25.127L116.994 22H118L117.105 26.9766H116.088L115.502 24.0449L114.92 26.9766H113.898L113 22ZM119 22H122V23H120V24H121.6V25H120V26H122V27H119V22ZM123 22H124.5C125.328 22 126 22.672 126 23.5C126 23.886 125.85 24.234 125.611 24.5C125.85 24.766 126 25.114 126 25.5C126 26.328 125.328 27 124.5 27H123V22ZM127 22H128.5C129.328 22 130 22.672 130 23.5C130 24.328 129.328 25 128.5 25H128V27H127V22ZM124 23V24H124.5C124.776 24 125 23.776 125 23.5C125 23.224 124.776 23 124.5 23H124ZM128 23V24H128.5C128.776 24 129 23.776 129 23.5C129 23.224 128.776 23 128.5 23H128ZM124 25V26H124.5C124.776 26 125 25.776 125 25.5C125 25.224 124.776 25 124.5 25H124ZM116 29H128V31H116V29Z" fill="#E97601"/>
<rect x="112" y="21" width="18" height="6" fill="#E97601"/>
<path d="M115.948 24.7925H114.67L114.663 24.0884H115.736C115.925 24.0884 116.08 24.0645 116.201 24.0166C116.322 23.9665 116.412 23.8947 116.471 23.8013C116.533 23.7056 116.563 23.5894 116.563 23.4526C116.563 23.2977 116.534 23.1724 116.475 23.0767C116.418 22.981 116.328 22.9115 116.205 22.8682C116.084 22.8249 115.928 22.8032 115.736 22.8032H115.025V26.9766H114V22H115.736C116.026 22 116.284 22.0273 116.512 22.082C116.742 22.1367 116.937 22.2199 117.097 22.3315C117.256 22.4432 117.378 22.5845 117.462 22.7554C117.547 22.924 117.589 23.1245 117.589 23.3569C117.589 23.562 117.542 23.7511 117.449 23.9243C117.358 24.0975 117.213 24.2388 117.015 24.3481C116.819 24.4575 116.562 24.5179 116.246 24.5293L115.948 24.7925ZM115.904 26.9766H114.39L114.79 26.1768H115.904C116.084 26.1768 116.231 26.1483 116.345 26.0913C116.459 26.0321 116.543 25.9523 116.598 25.8521C116.652 25.7518 116.68 25.6367 116.68 25.5068C116.68 25.361 116.655 25.2345 116.604 25.1274C116.557 25.0203 116.479 24.9383 116.372 24.8813C116.265 24.8221 116.124 24.7925 115.948 24.7925H114.96L114.967 24.0884H116.198L116.434 24.3652C116.737 24.3607 116.98 24.4142 117.165 24.5259C117.352 24.6353 117.487 24.7777 117.572 24.9531C117.658 25.1286 117.702 25.3166 117.702 25.5171C117.702 25.8361 117.632 26.105 117.493 26.3237C117.354 26.5402 117.15 26.7031 116.881 26.8125C116.615 26.9219 116.289 26.9766 115.904 26.9766Z" fill="white"/>
<path d="M119.359 22H120.227L121.505 25.6538L122.784 22H123.652L121.854 26.9766H121.157L119.359 22ZM118.891 22H119.755L119.913 25.5615V26.9766H118.891V22ZM123.255 22H124.124V26.9766H123.098V25.5615L123.255 22Z" fill="white"/>
<path d="M127.381 25.2026H126.112V24.4028H127.381C127.576 24.4028 127.736 24.3709 127.859 24.3071C127.982 24.241 128.072 24.1499 128.129 24.0337C128.186 23.9175 128.215 23.7865 128.215 23.6406C128.215 23.4925 128.186 23.3547 128.129 23.2271C128.072 23.0994 127.982 22.9969 127.859 22.9194C127.736 22.842 127.576 22.8032 127.381 22.8032H126.468V26.9766H125.443V22H127.381C127.77 22 128.104 22.0706 128.382 22.2119C128.662 22.3509 128.876 22.5435 129.025 22.7896C129.173 23.0356 129.247 23.3171 129.247 23.6338C129.247 23.9551 129.173 24.2331 129.025 24.4678C128.876 24.7025 128.662 24.8836 128.382 25.0112C128.104 25.1388 127.77 25.2026 127.381 25.2026Z" fill="white"/>
</g>
<path d="M76.8 47.1201C66.2041 47.1201 57.7222 55.4995 57.2737 65.9801C49.6055 68.075 44 74.9937 44 83.2001C44 93.117 52.1231 101.24 62.04 101.24H111.24C119.35 101.24 126 94.5904 126 86.4801C126 80.0867 121.74 74.6606 116.006 72.7451C115.66 63.1293 107.813 55.3201 98.12 55.3201C96.4159 55.3201 94.8272 55.7429 93.2512 56.1914C89.7278 50.8293 83.7187 47.1201 76.8 47.1201ZM76.8 50.4001C82.9116 50.4001 88.2672 53.8339 91.0987 58.7539L91.8162 59.9326L93.0975 59.4714C94.7375 58.8756 96.3327 58.6001 98.12 58.6001C106.243 58.6001 112.88 65.237 112.88 73.3601V75.1539L114.161 75.4614C118.972 76.5953 122.72 81.1821 122.72 86.4801C122.72 92.8031 117.563 97.9601 111.24 97.9601H62.04C53.9169 97.9601 47.28 91.3232 47.28 83.2001C47.28 76.102 52.2961 70.0737 59.0675 68.7476L60.4 68.4914V66.8001C60.4 57.6712 67.6711 50.4001 76.8 50.4001ZM85 64.4939L83.8212 65.6214L73.9812 75.4614L76.3387 77.8189L83.36 70.7976V89.7601H86.64V70.7976L93.6612 77.8189L96.0187 75.4614L86.1787 65.6214L85 64.4939Z" fill="black"/>
</g>
<defs>
<clipPath id="clip0_451_257">
<rect width="156" height="102" fill="white"/>
</clipPath>
<clipPath id="clip1_451_257">
<rect width="35.9944" height="39.9938" fill="white" transform="translate(0 46.0161) rotate(-31.8908)"/>
</clipPath>
<clipPath id="clip2_451_257">
<rect width="21" height="20" fill="white" transform="translate(38 22.4487) rotate(-26.74)"/>
</clipPath>
<clipPath id="clip3_451_257">
<rect width="36" height="39" fill="white" transform="translate(67)"/>
</clipPath>
<clipPath id="clip4_451_257">
<rect width="26.2063" height="29.1181" fill="white" transform="translate(132.048 37) rotate(28.8461)"/>
</clipPath>
<clipPath id="clip5_451_257">
<rect width="21" height="20" fill="white" transform="translate(111 13)"/>
</clipPath>
</defs>
</svg>
