<svg version="1.1" xmlns="http://www.w3.org/2000/svg" xmlns:xlink="http://www.w3.org/1999/xlink" width="48px" height="48px" viewBox="0,0,256,256"><defs><linearGradient x1="16.86" y1="1.533" x2="29.576" y2="41.546" gradientUnits="userSpaceOnUse" id="color-1"><stop offset="0" stop-color="#c77740"></stop><stop offset="1" stop-color="#b0622b"></stop></linearGradient><linearGradient x1="24" y1="36.966" x2="24" y2="40.893" gradientUnits="userSpaceOnUse" id="color-2"><stop offset="0.442" stop-color="#878786"></stop><stop offset="0.594" stop-color="#9f9f9e"></stop><stop offset="0.859" stop-color="#c3c3c3"></stop><stop offset="1" stop-color="#d1d1d1"></stop></linearGradient><linearGradient x1="24.93" y1="9.928" x2="23.046" y2="2.091" gradientUnits="userSpaceOnUse" id="color-3"><stop offset="0" stop-color="#c3cdd9"></stop><stop offset="1" stop-color="#9fa7b0"></stop></linearGradient><linearGradient x1="42.212" y1="24.867" x2="42.788" y2="28.133" gradientUnits="userSpaceOnUse" id="color-4"><stop offset="0" stop-color="#199ae0"></stop><stop offset="1" stop-color="#199ae0"></stop></linearGradient><linearGradient x1="42.212" y1="31.867" x2="42.788" y2="35.133" gradientUnits="userSpaceOnUse" id="color-5"><stop offset="0" stop-color="#199ae0"></stop><stop offset="1" stop-color="#199ae0"></stop></linearGradient><linearGradient x1="20.212" y1="24.867" x2="20.788" y2="28.133" gradientUnits="userSpaceOnUse" id="color-6"><stop offset="0" stop-color="#199ae0"></stop><stop offset="1" stop-color="#199ae0"></stop></linearGradient><linearGradient x1="20.212" y1="31.867" x2="20.788" y2="35.133" gradientUnits="userSpaceOnUse" id="color-7"><stop offset="0" stop-color="#199ae0"></stop><stop offset="1" stop-color="#199ae0"></stop></linearGradient><linearGradient x1="20.5" y1="39" x2="20.5" y2="43" gradientUnits="userSpaceOnUse" id="color-8"><stop offset="0.478" stop-color="#199ae0"></stop><stop offset="0.868" stop-color="#1186cc"></stop><stop offset="1" stop-color="#076cb3"></stop></linearGradient><linearGradient x1="42.5" y1="39" x2="42.5" y2="43" gradientUnits="userSpaceOnUse" id="color-9"><stop offset="0.478" stop-color="#199ae0"></stop><stop offset="0.868" stop-color="#1186cc"></stop><stop offset="1" stop-color="#076cb3"></stop></linearGradient><linearGradient x1="20.5" y1="21" x2="20.5" y2="17" gradientUnits="userSpaceOnUse" id="color-10"><stop offset="0.478" stop-color="#199ae0"></stop><stop offset="0.868" stop-color="#1186cc"></stop><stop offset="1" stop-color="#076cb3"></stop></linearGradient><linearGradient x1="42.5" y1="21" x2="42.5" y2="17" gradientUnits="userSpaceOnUse" id="color-11"><stop offset="0.478" stop-color="#199ae0"></stop><stop offset="0.868" stop-color="#1186cc"></stop><stop offset="1" stop-color="#076cb3"></stop></linearGradient><linearGradient x1="19.913" y1="-35.712" x2="33.865" y2="43.415" gradientUnits="userSpaceOnUse" id="color-12"><stop offset="0" stop-color="#32bdef"></stop><stop offset="0.661" stop-color="#25abe8"></stop><stop offset="1" stop-color="#1ea2e4"></stop></linearGradient></defs><g fill="none" fill-rule="nonzero" stroke="none" stroke-width="1" stroke-linecap="butt" stroke-linejoin="miter" stroke-miterlimit="10" stroke-dasharray="" stroke-dashoffset="0" font-family="none" font-weight="none" font-size="none" text-anchor="none" style="mix-blend-mode: normal"><g transform="scale(5.33333,5.33333)"><path d="M38,4h-12c0,1.105 -0.895,2 -2,2c-1.105,0 -2,-0.895 -2,-2h-12c-1.105,0 -2,0.895 -2,2v36c0,1.105 0.895,2 2,2h28c1.105,0 2,-0.895 2,-2v-36c0,-1.105 -0.895,-2 -2,-2z" fill="url(#color-1)"></path><path d="M37,42h-26c-0.552,0 -1,-0.448 -1,-1v-9h28v9c0,0.552 -0.448,1 -1,1z" fill="url(#color-2)"></path><path d="M37,40h-26c-0.552,0 -1,-0.448 -1,-1v-32c0,-0.552 0.448,-1 1,-1h26c0.552,0 1,0.448 1,1v32c0,0.552 -0.448,1 -1,1z" fill="#f3f3f3"></path><path d="M31,8v-4h-4.184c-0.413,-1.163 -1.512,-2 -2.816,-2c-1.304,0 -2.403,0.837 -2.816,2h-4.184v4c0,0.552 0.448,1 1,1h12c0.552,0 1,-0.448 1,-1zM24,4c0.552,0 1,0.448 1,1c0,0.552 -0.448,1 -1,1c-0.552,0 -1,-0.448 -1,-1c0,-0.552 0.448,-1 1,-1z" fill="url(#color-3)"></path><path d="M18.526,44h19.474c1.105,0 2,-0.895 2,-2v-29h-16.875c-2.04,0 -3.429,1.528 -4.906,3.375l-0.219,0.273v26.703l0.22,0.273c0.103,0.13 0.204,0.251 0.306,0.376z" fill="#000000" opacity="0.05"></path><path d="M23.125,13.5c-1.817,0 -3.12,1.443 -4.516,3.188l-0.109,0.136v26.351l0.109,0.137c0.189,0.236 0.376,0.465 0.563,0.688h18.828c1.105,0 2,-0.895 2,-2v-28.5z" fill="#000000" opacity="0.05"></path><path d="M38,46h-13l-6,-3v-26l6.5,-3h12l6.5,3v26z" fill="#50e6ff"></path><path d="M43.5,25h-2c-0.276,0 -0.5,0.224 -0.5,0.5v2c0,0.276 0.224,0.5 0.5,0.5h2c0.276,0 0.5,-0.224 0.5,-0.5v-2c0,-0.276 -0.224,-0.5 -0.5,-0.5z" fill="url(#color-4)"></path><path d="M43.5,32h-2c-0.276,0 -0.5,0.224 -0.5,0.5v2c0,0.276 0.224,0.5 0.5,0.5h2c0.276,0 0.5,-0.224 0.5,-0.5v-2c0,-0.276 -0.224,-0.5 -0.5,-0.5z" fill="url(#color-5)"></path><path d="M21.5,25h-2c-0.276,0 -0.5,0.224 -0.5,0.5v2c0,0.276 0.224,0.5 0.5,0.5h2c0.276,0 0.5,-0.224 0.5,-0.5v-2c0,-0.276 -0.224,-0.5 -0.5,-0.5z" fill="url(#color-6)"></path><path d="M21.5,32h-2c-0.276,0 -0.5,0.224 -0.5,0.5v2c0,0.276 0.224,0.5 0.5,0.5h2c0.276,0 0.5,-0.224 0.5,-0.5v-2c0,-0.276 -0.224,-0.5 -0.5,-0.5z" fill="url(#color-7)"></path><path d="M19.5,39h2c0.276,0 0.5,0.224 0.5,0.5v3.5h-3v-3.5c0,-0.276 0.224,-0.5 0.5,-0.5z" fill="url(#color-8)"></path><path d="M43.5,39h-2c-0.276,0 -0.5,0.224 -0.5,0.5v3.5h3v-3.5c0,-0.276 -0.224,-0.5 -0.5,-0.5z" fill="url(#color-9)"></path><path d="M19.5,21h2c0.276,0 0.5,-0.224 0.5,-0.5v-3.5h-3v3.5c0,0.276 0.224,0.5 0.5,0.5z" fill="url(#color-10)"></path><path d="M43.5,21h-2c-0.276,0 -0.5,-0.224 -0.5,-0.5v-3.5h3v3.5c0,0.276 -0.224,0.5 -0.5,0.5z" fill="url(#color-11)"></path><path d="M32.5,17h-2c-0.276,0 -0.5,-0.224 -0.5,-0.5v-2c0,-0.276 0.224,-0.5 0.5,-0.5h2c0.276,0 0.5,0.224 0.5,0.5v2c0,0.276 -0.224,0.5 -0.5,0.5zM33,45.5v-2c0,-0.276 -0.224,-0.5 -0.5,-0.5h-2c-0.276,0 -0.5,0.224 -0.5,0.5v2c0,0.276 0.224,0.5 0.5,0.5h2c0.276,0 0.5,-0.224 0.5,-0.5zM25.5,43h-6.5c1.5,1.875 2.625,3 4.125,3h2.375c0.276,0 0.5,-0.224 0.5,-0.5v-2c0,-0.276 -0.224,-0.5 -0.5,-0.5zM37,43.5v2c0,0.276 0.224,0.5 0.5,0.5h2.375c1.5,0 2.625,-1.125 4.125,-3h-6.5c-0.276,0 -0.5,0.224 -0.5,0.5zM26,16.5v-2c0,-0.276 -0.224,-0.5 -0.5,-0.5h-2.375c-1.5,0 -2.625,1.125 -4.125,3h6.5c0.276,0 0.5,-0.224 0.5,-0.5zM37.5,17h6.5c-1.5,-1.875 -2.625,-3 -4.125,-3h-2.375c-0.276,0 -0.5,0.224 -0.5,0.5v2c0,0.276 0.224,0.5 0.5,0.5zM32.5,17h-2c-0.276,0 -0.5,-0.224 -0.5,-0.5v-2c0,-0.276 0.224,-0.5 0.5,-0.5h2c0.276,0 0.5,0.224 0.5,0.5v2c0,0.276 -0.224,0.5 -0.5,0.5zM33,45.5v-2c0,-0.276 -0.224,-0.5 -0.5,-0.5h-2c-0.276,0 -0.5,0.224 -0.5,0.5v2c0,0.276 0.224,0.5 0.5,0.5h2c0.276,0 0.5,-0.224 0.5,-0.5zM25.5,43h-6.5c1.5,1.875 2.625,3 4.125,3h2.375c0.276,0 0.5,-0.224 0.5,-0.5v-2c0,-0.276 -0.224,-0.5 -0.5,-0.5zM37,43.5v2c0,0.276 0.224,0.5 0.5,0.5h2.375c1.5,0 2.625,-1.125 4.125,-3h-6.5c-0.276,0 -0.5,0.224 -0.5,0.5zM26,16.5v-2c0,-0.276 -0.224,-0.5 -0.5,-0.5h-2.375c-1.5,0 -2.625,1.125 -4.125,3h6.5c0.276,0 0.5,-0.224 0.5,-0.5zM37.5,17h6.5c-1.5,-1.875 -2.625,-3 -4.125,-3h-2.375c-0.276,0 -0.5,0.224 -0.5,0.5v2c0,0.276 0.224,0.5 0.5,0.5z" fill="url(#color-12)"></path></g></g></svg>