<svg width="48" height="48" viewBox="0 0 48 48" fill="none" xmlns="http://www.w3.org/2000/svg">
<path d="M24 4C12.954 4 4 12.954 4 24C4 34.028 11.379 42.331 21.004 43.777C21.981 43.924 22.982 41 24 41C24.919 41 25.824 43.938 26.711 43.818C36.475 42.495 44 34.127 44 24C44 12.954 35.046 4 24 4Z" fill="url(#paint0_linear_423_65)"/>
<path opacity="0.05" d="M27.7071 21.1689C27.7071 19.7449 28.0121 18.0479 29.4641 18.0479H33.747L33.746 12.4309L33.696 11.5789L32.85 11.4649C32.242 11.3829 30.977 11.2119 28.644 11.2119C23.0751 11.2119 20.0081 14.5269 20.0081 20.5459V23.0439H15.0601V30.3019H20.0081V43.5999C21.2981 43.8609 22.6331 43.9999 24.0001 43.9999C25.2681 43.9999 26.5041 43.8689 27.7071 43.6429V30.3009H32.74L33.862 23.0429H27.7071V21.1689Z" fill="black"/>
<path opacity="0.05" d="M27.2071 21.1689C27.2071 19.8159 27.5001 17.5479 29.464 17.5479H33.247V12.4599L33.221 12.0199L32.788 11.9609C32.191 11.8799 30.95 11.7119 28.6451 11.7119C23.3221 11.7119 20.5091 14.7669 20.5091 20.5459V23.5439H15.5601V29.8019H20.5081V43.6759C21.6441 43.8759 22.8061 43.9999 24.0001 43.9999C25.0941 43.9999 26.1601 43.8879 27.2071 43.7189V29.8009H32.311L33.278 23.5429H27.206V21.1689H27.2071Z" fill="black"/>
<path d="M26.7071 29.3009H31.883L32.696 24.0429H26.7071V21.1689C26.7071 18.9849 27.4211 17.0479 29.4641 17.0479H32.7471V12.4599C32.1701 12.3819 30.9501 12.2119 28.6451 12.2119C23.8311 12.2119 21.0091 14.7539 21.0091 20.5459V24.0439H16.0601V29.3019H21.0081V43.7769C21.9881 43.9229 22.9811 43.9999 24.0001 43.9999C24.9211 43.9999 25.8201 43.9379 26.7071 43.8179V29.3009Z" fill="white"/>
<defs>
<linearGradient id="paint0_linear_423_65" x1="9.993" y1="9.993" x2="40.615" y2="40.615" gradientUnits="userSpaceOnUse">
<stop stop-color="#2AA4F4"/>
<stop offset="1" stop-color="#007AD9"/>
</linearGradient>
</defs>
</svg>
