<svg width="48" height="48" viewBox="0 0 48 48" fill="none" xmlns="http://www.w3.org/2000/svg">
<path d="M44 23.5C44 34.27 35.05 43 24 43C22.349 43 20.75 42.806 19.216 42.436C18.751 42.324 18.265 42.367 17.837 42.581L13.46 44.77C12.33 45.335 11 44.513 11 43.249V39.224C11 38.649 10.743 38.113 10.319 37.725C6.425 34.165 4 29.11 4 23.5C4 12.73 12.95 4 24 4C35.05 4 44 12.73 44 23.5Z" fill="url(#paint0_radial_423_50)"/>
<path opacity="0.05" d="M34.9919 17.292C34.5639 17.292 34.1489 17.434 33.7919 17.703L28.0979 21.918C27.9649 22.018 27.8179 22.068 27.6629 22.068C27.5129 22.068 27.3719 22.021 27.2529 21.932L23.2809 18.942C22.4729 18.341 21.5209 18.024 20.5239 18.024C18.9479 18.024 17.4989 18.815 16.6479 20.14L15.4369 22.031L11.3169 28.726C10.9249 29.34 10.8949 30.098 11.2459 30.74C11.6039 31.394 12.2799 31.8 13.0099 31.8C13.4379 31.8 13.8529 31.658 14.2099 31.389L19.9039 27.174C20.0369 27.074 20.1839 27.024 20.3389 27.024C20.4889 27.024 20.6299 27.071 20.7489 27.16L24.7209 30.15C25.5299 30.752 26.4809 31.068 27.4779 31.068C29.0539 31.068 30.5029 30.277 31.3539 28.952L32.5649 27.061L36.6849 20.366C37.0769 19.752 37.1069 18.994 36.7559 18.352C36.3979 17.698 35.7219 17.292 34.9919 17.292Z" fill="black"/>
<path opacity="0.07" d="M34.9919 17.792C34.6729 17.792 34.3619 17.899 34.0929 18.102L28.3959 22.32C28.1799 22.483 27.9279 22.568 27.6639 22.568C27.4049 22.568 27.1599 22.486 26.9539 22.332L22.9809 19.341C22.2619 18.806 21.4129 18.524 20.5239 18.524C19.1189 18.524 17.8279 19.229 17.0689 20.411L15.8589 22.302L11.7439 28.99C11.4469 29.455 11.4239 30.023 11.6859 30.501C11.9519 30.987 12.4729 31.301 13.0109 31.301C13.3299 31.301 13.6409 31.194 13.9099 30.991L19.6069 26.773C19.8229 26.61 20.0749 26.525 20.3389 26.525C20.5979 26.525 20.8429 26.607 21.0489 26.761L25.0219 29.752C25.7409 30.287 26.5899 30.569 27.4789 30.569C28.8839 30.569 30.1749 29.864 30.9339 28.682L32.1439 26.791L36.2589 20.103C36.5559 19.638 36.5789 19.07 36.3169 18.592C36.0509 18.106 35.5309 17.792 34.9919 17.792Z" fill="black"/>
<path d="M34.3939 18.5015L28.6939 22.7215C28.0839 23.1815 27.2539 23.1815 26.6539 22.7315L22.6799 19.7405C20.9999 18.4905 18.62 18.9205 17.49 20.6805L16.28 22.5705L12.17 29.2505C11.57 30.1905 12.72 31.2605 13.61 30.5905L19.3099 26.3705C19.9199 25.9105 20.7499 25.9105 21.3499 26.3605L25.3239 29.3515C27.0039 30.6015 29.3839 30.1715 30.5139 28.4115L31.7239 26.5215L35.8339 19.8415C36.4339 18.9015 35.2839 17.8315 34.3939 18.5015Z" fill="white"/>
<defs>
<radialGradient id="paint0_radial_423_50" cx="0" cy="0" r="1" gradientUnits="userSpaceOnUse" gradientTransform="translate(11.087 42.978) scale(47.612 47.612)">
<stop stop-color="#1292FF"/>
<stop offset="0.079" stop-color="#2982FF"/>
<stop offset="0.23" stop-color="#4E69FF"/>
<stop offset="0.351" stop-color="#6559FF"/>
<stop offset="0.428" stop-color="#6D53FF"/>
<stop offset="0.754" stop-color="#DF47AA"/>
<stop offset="0.946" stop-color="#FF6257"/>
</radialGradient>
</defs>
</svg>
