<svg width="48" height="48" viewBox="0 0 48 48" fill="none" xmlns="http://www.w3.org/2000/svg">
<path d="M24 4C12.954 4 4 12.954 4 24C4 35.046 12.954 44 24 44C35.046 44 44 35.046 44 24C44 12.954 35.046 4 24 4Z" fill="url(#paint0_linear_423_72)"/>
<path opacity="0.05" d="M19.9999 34.9997C16.7599 34.9997 13.6489 34.2057 11.4649 32.8217L11.1279 32.6087L11.7199 30.9377L12.1159 30.9837C12.2649 31.0017 12.3819 31.0047 12.5009 31.0047L12.9949 30.9997C13.9919 30.9997 15.4469 30.8397 16.8409 30.4227C15.4449 29.9467 13.6749 29.0217 13.1209 27.3077L12.6969 25.9997H13.7239C12.6249 24.9967 11.9999 23.6017 11.9999 22.0567V20.4367L12.6089 20.7177C12.2139 19.9527 12.0049 19.1807 12.0049 18.4557C12.0049 17.4067 12.2829 16.3807 12.8109 15.4897L13.5399 14.2617L14.4459 15.3637C16.4429 17.7947 19.6899 20.4597 22.9999 20.9267V19.9997C22.9999 16.6357 25.4679 13.9997 28.6169 13.9997C30.1619 13.9997 31.4999 14.4417 32.5049 15.2807C33.5439 15.0197 34.8129 14.5377 35.4939 14.1367L37.7579 12.8047L36.9509 15.3047C36.9129 15.4247 36.8649 15.5447 36.8069 15.6667L38.7459 14.8077L36.5879 18.0407C36.1389 18.7237 35.7129 19.3727 34.9929 19.9797C34.9979 20.2387 34.9999 20.5107 34.9999 20.6297C34.9999 27.5957 29.7429 34.9997 19.9999 34.9997Z" fill="black"/>
<path opacity="0.07" d="M19.9999 34.5003C16.8529 34.5003 13.8389 33.7343 11.7319 32.3993L12.0569 31.4803C12.2289 31.5003 12.3629 31.5053 12.4989 31.5053L12.9999 31.5003C14.6129 31.5003 16.7989 31.1313 18.4749 30.3373C16.4489 29.9603 14.1689 28.9223 13.5969 27.1533L13.3849 26.5003H14.0729C14.5489 26.5003 14.9279 26.4753 15.2379 26.4353C13.5349 25.5803 12.5009 23.9813 12.5009 22.0573V21.2193L13.2379 21.5603C13.4529 21.6763 13.7389 21.8093 14.0509 21.9383C13.1709 20.9283 12.5059 19.6833 12.5059 18.4573C12.5059 17.4983 12.7609 16.5603 13.2419 15.7463L13.6059 15.1323L14.0589 15.6833C16.2679 18.3723 19.8629 21.2373 23.4989 21.4833V20.0003C23.4989 16.9163 25.7469 14.5003 28.6159 14.5003C30.1449 14.5003 31.4349 14.9583 32.3669 15.8283C33.4909 15.5763 34.9519 15.0363 35.7459 14.5693L36.8779 13.9033L36.4749 15.1533C36.2839 15.7473 35.8209 16.3453 35.2779 16.8793C35.4519 16.8113 35.6259 16.7393 35.7979 16.6633L37.3749 15.9643L36.1729 17.7653C35.6899 18.5013 35.2669 19.1453 34.4899 19.7463C34.4959 20.0493 34.4999 20.4733 34.4999 20.6293C34.4999 27.3543 29.4179 34.5003 19.9999 34.5003Z" fill="black"/>
<path d="M36 15C35.049 15.559 33.329 16.156 32.207 16.372C31.311 15.422 30.033 15 28.617 15C25.897 15 24 17.305 24 20V22C20 22 16.1 18.953 13.673 16C13.246 16.721 13.006 17.565 13.006 18.457C13.006 20.276 14.677 22.122 16 23C15.193 22.975 13.665 22.359 13 22V22.057C13 24.424 14.661 26.031 16.912 26.479C16.501 26.592 16 27 14.072 27C14.698 28.935 17.845 29.958 20 30C18.314 31.307 15.308 32 13 32C12.601 32 12.385 32.022 12 31.977C14.178 33.357 17.22 34 20 34C29.057 34 34 27.082 34 20.63C34 20.418 33.993 19.708 33.982 19.5C34.95 18.818 35.342 18.104 36 17.12C35.118 17.511 34.001 17.878 33 18C34.018 17.396 35.633 16.138 36 15Z" fill="white"/>
<defs>
<linearGradient id="paint0_linear_423_72" x1="8.455" y1="7.883" x2="40.88" y2="41.5" gradientUnits="userSpaceOnUse">
<stop stop-color="#2AA4F4"/>
<stop offset="1" stop-color="#007AD9"/>
</linearGradient>
</defs>
</svg>
