<svg width="48" height="48" viewBox="0 0 48 48" fill="none" xmlns="http://www.w3.org/2000/svg">
<path d="M37.8479 9.86C34.0729 6.083 29.0519 4.002 23.7089 4C12.6929 4 3.72691 12.962 3.72191 23.979C3.72091 27.346 4.57091 30.664 6.18291 33.601L3.59791 43.04C3.50391 43.385 3.59991 43.753 3.85191 44.007C4.04191 44.199 4.29891 44.304 4.56291 44.304C4.64791 44.304 4.73291 44.293 4.81691 44.271L14.5039 41.731C17.3319 43.199 20.5019 43.974 23.7009 43.975C34.7249 43.975 43.6909 35.012 43.6959 23.995C43.6979 18.656 41.6209 13.636 37.8479 9.86Z" fill="url(#paint0_linear_423_57)"/>
<path d="M34.871 12.8321C31.891 9.85005 27.93 8.20705 23.714 8.20605C15.01 8.20605 7.931 15.282 7.927 23.98C7.926 26.961 8.76 29.863 10.34 32.376L10.716 32.973L9.121 38.794L15.094 37.228L15.671 37.57C18.093 39.008 20.871 39.768 23.703 39.769H23.709C32.407 39.769 39.486 32.692 39.489 23.993C39.49 19.778 37.851 15.814 34.871 12.8321Z" fill="url(#paint1_linear_423_57)"/>
<path opacity="0.05" d="M28.8928 33.879C27.8978 33.879 26.5388 33.625 23.8058 32.548C20.7458 31.34 17.7398 28.718 15.3418 25.164L15.2648 25.051C14.6228 24.194 13.1328 21.944 13.1328 19.551C13.1328 16.971 14.4208 15.598 14.9708 15.011L15.0558 14.92C15.8148 14.089 16.7088 14 17.0578 14C17.4268 14.004 17.7398 14 18.0108 14.012C18.6648 14.038 19.4098 14.227 19.9468 15.421C20.1968 15.979 20.6228 17.026 20.9558 17.847C21.1688 18.374 21.3418 18.802 21.3948 18.916C21.6888 19.502 21.7028 20.083 21.4308 20.63L21.3658 20.763C21.2378 21.025 21.1048 21.296 20.8218 21.626L20.5868 21.908C20.4248 22.105 20.2618 22.301 20.1168 22.453C20.5058 23.094 21.3228 24.309 22.4478 25.313C23.8418 26.554 25.0358 27.073 25.6768 27.352C25.8038 27.407 25.9098 27.454 25.9938 27.494C26.3988 27.024 27.0658 26.223 27.2958 25.88C28.0658 24.724 29.1728 25.125 29.5358 25.258C30.1048 25.464 32.8588 26.834 32.8858 26.847L33.1408 26.972C33.5598 27.175 33.9538 27.366 34.2028 27.78C34.5978 28.441 34.3788 29.853 34.0098 30.885C33.4758 32.388 31.1818 33.69 29.9558 33.8L29.7298 33.824C29.4648 33.855 29.1958 33.879 28.8928 33.879ZM17.2158 16C17.0758 16 16.8308 15.942 16.5298 16.27L16.4288 16.379C15.9758 16.862 15.1318 17.762 15.1318 19.551C15.1318 21.394 16.4578 23.308 16.8638 23.851C16.8908 23.887 16.9348 23.952 16.9988 24.045C19.1738 27.268 21.8518 29.627 24.5398 30.687C27.9238 32.022 28.7928 31.921 29.4958 31.838L29.7738 31.808C30.3828 31.753 31.8958 30.857 32.1248 30.214C32.3338 29.629 32.4008 29.127 32.4118 28.84C32.3678 28.819 32.3198 28.797 32.2688 28.773L31.9858 28.634C31.3488 28.314 29.2068 27.268 28.8548 27.139C28.4128 27.747 27.5928 28.704 27.3758 28.953C26.9688 29.42 26.2488 29.862 25.1468 29.307C25.0808 29.274 24.9908 29.236 24.8788 29.187C24.1878 28.886 22.7488 28.261 21.1158 26.807C19.6468 25.496 18.6418 23.903 18.2778 23.278C17.8328 22.517 17.9558 21.783 18.6438 21.098C18.7638 20.978 18.9008 20.807 19.0408 20.638L19.3028 20.324C19.4208 20.187 19.4638 20.098 19.5698 19.883L19.6048 19.812C19.5128 19.608 19.3268 19.153 19.1028 18.599C18.7798 17.802 18.3668 16.784 18.1238 16.242C18.0588 16.098 18.0098 16.027 17.9858 15.997C17.9908 16.012 17.9568 16.013 17.9278 16.011C17.7058 16 17.4628 16 17.2158 16Z" fill="black"/>
<path opacity="0.07" d="M28.8888 33.384C28.0428 33.384 26.7338 33.164 23.9898 32.082C21.0228 30.912 18.0988 28.355 15.7568 24.884L15.6698 24.756C15.0538 23.934 13.6328 21.794 13.6328 19.55C13.6328 17.168 14.8258 15.896 15.3358 15.352L15.4248 15.256C16.0498 14.573 16.7758 14.5 17.0588 14.5C17.4358 14.503 17.7258 14.5 17.9898 14.512C18.4818 14.532 19.0468 14.636 19.4918 15.626C19.7408 16.18 20.1628 17.22 20.4928 18.035C20.7178 18.59 20.8978 19.037 20.9448 19.132C21.0268 19.297 21.2828 19.806 20.9838 20.407L20.9168 20.543C20.7918 20.798 20.6838 21.019 20.4418 21.301L20.1998 21.59C20.0268 21.8 19.8538 22.009 19.7038 22.159C19.4878 22.374 19.4878 22.374 19.5738 22.521C19.9018 23.084 20.8058 24.519 22.1148 25.686C23.5678 26.981 24.8108 27.52 25.4778 27.81C25.6218 27.872 25.7368 27.923 25.8218 27.966C26.1148 28.112 26.1448 28.082 26.2488 27.964C26.5368 27.636 27.4168 26.6 27.7118 26.157C28.2658 25.327 28.9808 25.587 29.3658 25.726C29.8718 25.91 32.4048 27.163 32.6618 27.292L32.9238 27.42C33.3038 27.604 33.6038 27.749 33.7758 28.034C34.0298 28.46 33.9248 29.637 33.5408 30.715C33.0528 32.086 30.8948 33.212 29.9128 33.3L29.6738 33.326C29.4408 33.354 29.1958 33.384 28.8888 33.384ZM17.2008 15.5C17.1748 15.5 17.1488 15.5 17.1228 15.5C16.9398 15.5 16.5278 15.531 16.1608 15.932L16.0638 16.036C15.5988 16.532 14.6318 17.564 14.6318 19.55C14.6318 21.493 15.9128 23.414 16.4638 24.15C16.4888 24.183 16.5278 24.24 16.5848 24.324C18.8158 27.63 21.5758 30.054 24.3568 31.152C27.8618 32.534 28.8018 32.423 29.5538 32.335L29.8208 32.306C30.5138 32.244 32.2718 31.293 32.5968 30.381C32.9298 29.449 32.9438 28.671 32.8928 28.504C32.8998 28.51 32.6608 28.406 32.4878 28.322L32.2118 28.186C31.5888 27.873 29.4058 26.805 29.0238 26.666C28.6638 26.536 28.6628 26.533 28.5438 26.712C28.1948 27.233 27.2238 28.369 27.0018 28.622C26.3598 29.357 25.6178 28.981 25.3728 28.858C25.3008 28.822 25.2018 28.78 25.0798 28.727C24.4118 28.436 23.0228 27.832 21.4498 26.431C20.0338 25.169 19.0628 23.628 18.7108 23.024C18.2348 22.21 18.7698 21.677 18.9978 21.45C19.1278 21.32 19.2778 21.137 19.4288 20.953L19.6838 20.647C19.8428 20.461 19.9098 20.325 20.0198 20.1L20.0898 19.957C20.1388 19.859 20.1478 19.768 20.0498 19.574C19.9978 19.47 19.8048 18.996 19.5668 18.407C19.2408 17.604 18.8258 16.578 18.5798 16.033C18.3508 15.524 18.2168 15.518 17.9478 15.508C17.7168 15.5 17.4608 15.5 17.2008 15.5Z" fill="black"/>
<path fill-rule="evenodd" clip-rule="evenodd" d="M19.0348 15.831C18.6798 15.041 18.3058 15.025 17.9668 15.011C17.6898 14.999 17.3738 15 17.0578 15C16.7418 15 16.2278 15.119 15.7928 15.594C15.3578 16.069 14.1318 17.216 14.1318 19.55C14.1318 21.884 15.8318 24.14 16.0688 24.456C16.3058 24.772 19.3508 29.715 24.1728 31.617C28.1798 33.197 28.9958 32.883 29.8658 32.804C30.7358 32.725 32.6728 31.657 33.0678 30.549C33.4628 29.441 33.4628 28.492 33.3448 28.294C33.2258 28.096 32.9098 27.978 32.4358 27.74C31.9618 27.502 29.6288 26.355 29.1938 26.197C28.7588 26.039 28.4428 25.96 28.1258 26.435C27.8098 26.909 26.9008 27.978 26.6238 28.294C26.3468 28.611 26.0698 28.651 25.5958 28.413C25.1218 28.175 23.5938 27.675 21.7808 26.059C20.3708 24.802 19.4188 23.249 19.1418 22.774C18.8648 22.3 19.1118 22.043 19.3498 21.806C19.5628 21.593 19.8238 21.252 20.0618 20.975C20.2988 20.698 20.3778 20.5 20.5358 20.184C20.6938 19.867 20.6148 19.59 20.4958 19.353C20.3788 19.115 19.4568 16.769 19.0348 15.831Z" fill="white"/>
<defs>
<linearGradient id="paint0_linear_423_57" x1="6.71791" y1="12.801" x2="35.0969" y2="41.18" gradientUnits="userSpaceOnUse">
<stop stop-color="#DFE9F2"/>
<stop offset="0.391" stop-color="#D6E0E9"/>
<stop offset="1" stop-color="#BFC8D1"/>
</linearGradient>
<linearGradient id="paint1_linear_423_57" x1="15.389" y1="10.7261" x2="28.863" y2="39.265" gradientUnits="userSpaceOnUse">
<stop stop-color="#2ECC75"/>
<stop offset="1" stop-color="#0B964A"/>
</linearGradient>
</defs>
</svg>
